<svg width="33" height="19" viewBox="0 0 33 19" fill="none" xmlns="http://www.w3.org/2000/svg">
<path d="M26.4263 18.9695H6.26012C2.8075 18.9695 0 16.2792 0 12.9707V5.9988C0 2.6903 2.8075 0 6.26012 0H26.4144C29.867 0 32.6745 2.6903 32.6745 5.9988V12.9707C32.6865 16.2906 29.879 18.9695 26.4263 18.9695Z" fill="white"/>
<path d="M6.59472 14.3559V7.00623H4.58765V5.75839C4.98189 5.73549 5.32835 5.70115 5.63897 5.63246C5.94959 5.56377 6.22436 5.46074 6.4633 5.30046C6.70223 5.14019 6.92922 4.92268 7.12037 4.63647H8.39868V14.3445H6.59472V14.3559Z" fill="#4E73D3"/>
<path d="M14.5514 14.4591C13.8107 14.4591 13.1895 14.3331 12.6758 14.0813C12.1621 13.8294 11.744 13.4745 11.4333 13.0166C11.1227 12.5587 10.8838 12.0321 10.7404 11.4368C10.5971 10.8414 10.5134 10.2004 10.5134 9.51347C10.5134 8.81514 10.5851 8.1626 10.7404 7.56729C10.8838 6.96055 11.1227 6.43393 11.4453 5.97601C11.7678 5.51808 12.186 5.16319 12.6997 4.89989C13.2134 4.63658 13.8466 4.51065 14.5753 4.51065C15.328 4.51065 15.9731 4.64803 16.4868 4.92278C17.0125 5.19754 17.4187 5.56387 17.7293 6.03325C18.0399 6.50262 18.2669 7.02923 18.3983 7.62454C18.5417 8.21984 18.6014 8.83803 18.6014 9.49057C18.6014 10.1317 18.5297 10.7499 18.3983 11.3452C18.255 11.9405 18.028 12.4671 17.7174 12.9364C17.4067 13.4058 16.9886 13.7722 16.4629 14.0469C15.9492 14.3331 15.3041 14.4591 14.5514 14.4591ZM14.5514 12.9021C15.0413 12.9021 15.4355 12.7876 15.7342 12.5701C16.0329 12.3526 16.2598 12.0664 16.4151 11.723C16.5705 11.3795 16.666 11.0132 16.7258 10.6125C16.7736 10.2233 16.8094 9.84547 16.8094 9.50202C16.8094 9.15858 16.7855 8.78079 16.7377 8.39156C16.6899 8.00232 16.5944 7.63598 16.439 7.28109C16.2837 6.93765 16.0567 6.65144 15.77 6.43393C15.4714 6.21642 15.0771 6.10194 14.5753 6.10194C14.0736 6.10194 13.6793 6.21642 13.3807 6.43393C13.082 6.65144 12.855 6.93765 12.6997 7.28109C12.5444 7.62454 12.4488 7.99087 12.3891 8.39156C12.3413 8.78079 12.3054 9.15858 12.3054 9.50202C12.3054 9.84547 12.3293 10.2233 12.3771 10.6125C12.4249 11.0017 12.5205 11.3681 12.6758 11.723C12.8192 12.0664 13.0462 12.3526 13.3448 12.5701C13.6435 12.7876 14.0497 12.9021 14.5514 12.9021Z" fill="#4E73D3"/>
<path d="M24.0373 14.4591C23.2966 14.4591 22.6754 14.3331 22.1616 14.0813C21.6479 13.8294 21.2298 13.4745 20.9192 13.0166C20.6086 12.5587 20.3696 12.0321 20.2263 11.4368C20.0829 10.8414 19.9993 10.2004 19.9993 9.51347C19.9993 8.81514 20.071 8.1626 20.2263 7.56729C20.3696 6.96055 20.6086 6.43393 20.9311 5.97601C21.2537 5.51808 21.6718 5.16319 22.1855 4.89989C22.6993 4.63658 23.3324 4.51065 24.0612 4.51065C24.8138 4.51065 25.459 4.64803 25.9727 4.92278C26.4983 5.19754 26.9045 5.56387 27.2151 6.03325C27.5258 6.50262 27.7527 7.02923 27.8842 7.62454C28.0275 8.21984 28.0873 8.83803 28.0873 9.49057C28.0873 10.1317 28.0156 10.7499 27.8842 11.3452C27.7408 11.9405 27.5138 12.4671 27.2032 12.9364C26.8926 13.4058 26.4744 13.7722 25.9488 14.0469C25.4351 14.3331 24.8019 14.4591 24.0373 14.4591ZM24.0373 12.9021C24.5271 12.9021 24.9214 12.7876 25.22 12.5701C25.5187 12.3526 25.7457 12.0664 25.901 11.723C26.0563 11.3795 26.1519 11.0132 26.2116 10.6125C26.2594 10.2233 26.2952 9.84547 26.2952 9.50202C26.2952 9.15858 26.2713 8.78079 26.2236 8.39156C26.1758 8.00232 26.0802 7.63598 25.9249 7.28109C25.7696 6.93765 25.5426 6.65144 25.2559 6.43393C24.9572 6.21642 24.5629 6.10194 24.0612 6.10194C23.5594 6.10194 23.1652 6.21642 22.8665 6.43393C22.5678 6.65144 22.3408 6.93765 22.1855 7.28109C22.0302 7.62454 21.9347 7.99087 21.8749 8.39156C21.8271 8.78079 21.7913 9.15858 21.7913 9.50202C21.7913 9.84547 21.8152 10.2233 21.863 10.6125C21.9108 11.0017 22.0063 11.3681 22.1616 11.723C22.305 12.0664 22.532 12.3526 22.8307 12.5701C23.1293 12.7876 23.5355 12.9021 24.0373 12.9021Z" fill="#4E73D3"/>
</svg>
