<svg width="485" height="258" viewBox="0 0 485 258" fill="none" xmlns="http://www.w3.org/2000/svg">
<path d="M128 38.0059C129.797 45.1536 128.918 31.9939 132.445 15.8816C135.971 -0.230759 142 6.31571 142 6.31571" stroke="white" stroke-width="0.828725" stroke-linecap="round" stroke-linejoin="round"/>
<path d="M127 22L138 17" stroke="white" stroke-width="0.828725" stroke-linecap="round" stroke-linejoin="round"/>
<path d="M147.363 12C147.363 12 140.118 25.3247 151 31" stroke="white" stroke-width="0.828725" stroke-linecap="round" stroke-linejoin="round"/>
<path d="M157 8C157 8 167.347 13.9993 160.866 27" stroke="white" stroke-width="0.828725" stroke-linecap="round" stroke-linejoin="round"/>
<path d="M149 16L157 22" stroke="white" stroke-width="0.828725" stroke-linecap="round" stroke-linejoin="round"/>
<path d="M155 14L149 23" stroke="white" stroke-width="0.828725" stroke-linecap="round" stroke-linejoin="round"/>
<path d="M89.6021 218C89.6021 218 78.058 217.834 78 227.796" stroke="white" stroke-width="0.828725" stroke-linecap="round" stroke-linejoin="round"/>
<path d="M88.6408 224.282C88.4005 222.815 83.3784 220.967 82.5082 224.796C81.6381 228.625 87.8784 226.329 89.8093 224.539C89.8093 224.539 86.2292 228.02 87.3231 228.998" stroke="white" stroke-width="0.828725" stroke-linecap="round" stroke-linejoin="round"/>
<path d="M89.3453 230.083C89.3453 230.083 87.8287 231.981 86.1879 231.077" stroke="white" stroke-width="0.828725" stroke-linecap="round" stroke-linejoin="round"/>
<path d="M99.4474 223.454L90.7872 232.246C90.7872 232.246 95.1463 227.829 97.6739 229.255C100.823 230.978 96.7375 235.702 93.3729 232.321" stroke="white" stroke-width="0.828725" stroke-linecap="round" stroke-linejoin="round"/>
<path d="M103.823 225.823C103.823 225.823 106.119 236.34 94.2679 236.713" stroke="white" stroke-width="0.828725" stroke-linecap="round" stroke-linejoin="round"/>
<path d="M264.679 49.8187L268.856 50.5066L268.914 59.9955L278.063 43.3132L292.499 45.6834" stroke="white" stroke-width="0.828725" stroke-linecap="round" stroke-linejoin="round"/>
<path d="M279.646 50.6223L285.994 61.8267" stroke="white" stroke-width="0.828725" stroke-linecap="round" stroke-linejoin="round"/>
<path d="M287.626 51.9316L276.265 60.2272" stroke="white" stroke-width="0.828725" stroke-linecap="round" stroke-linejoin="round"/>
<path d="M212.32 62.2244L210.944 67.1138C210.944 67.1138 211.632 64.6277 212.842 64.6277C214.326 64.6277 213.787 67.1138 211.889 66.6" stroke="#263238" stroke-width="0.828725" stroke-linecap="round" stroke-linejoin="round"/>
<path d="M328.408 122.489L325.507 132.973L331.847 139.917" stroke="#263238" stroke-width="0.828725" stroke-linecap="round" stroke-linejoin="round"/>
<path d="M332.038 126.749L339.297 132.824" stroke="#263238" stroke-width="0.828725" stroke-linecap="round" stroke-linejoin="round"/>
<path d="M337.035 125.257L333.894 132.973" stroke="#263238" stroke-width="0.828725" stroke-linecap="round" stroke-linejoin="round"/>
<path d="M342.14 131.979C342.14 131.979 342.206 134.166 341.261 134.465" stroke="#263238" stroke-width="0.828725" stroke-linecap="round" stroke-linejoin="round"/>
<path d="M343.06 124.338L347.444 127.595" stroke="#263238" stroke-width="0.828725" stroke-linecap="round" stroke-linejoin="round"/>
<path d="M349.068 121.661L344.742 137.241" stroke="#263238" stroke-width="0.828725" stroke-linecap="round" stroke-linejoin="round"/>
<path d="M349.283 116.249L356.311 124.205L353.319 132.907" stroke="#263238" stroke-width="0.828725" stroke-linecap="round" stroke-linejoin="round"/>
<path d="M69.485 134.113C74.7664 131.926 77.2744 125.871 75.0868 120.589C72.8992 115.308 66.8443 112.8 61.5629 114.988C56.2814 117.175 53.7734 123.23 55.9611 128.512C58.1487 133.793 64.2036 136.301 69.485 134.113Z" stroke="white" stroke-width="0.828725" stroke-linecap="round" stroke-linejoin="round"/>
<path d="M77.0065 126.972C83.3501 126.972 88.4926 121.829 88.4926 115.486C88.4926 109.142 83.3501 104 77.0065 104C70.6629 104 65.5204 109.142 65.5204 115.486C65.5204 121.829 70.6629 126.972 77.0065 126.972Z" stroke="white" stroke-width="0.828725" stroke-linecap="round" stroke-linejoin="round"/>
<path d="M67.559 114.4L66.1584 119.265" stroke="white" stroke-width="0.828725" stroke-linecap="round" stroke-linejoin="round"/>
<path d="M69.5397 115.005L67.5591 122.016" stroke="white" stroke-width="0.828725" stroke-linecap="round" stroke-linejoin="round"/>
<path d="M71.6198 116.182L69.5397 124.113" stroke="white" stroke-width="0.828725" stroke-linecap="round" stroke-linejoin="round"/>
<path d="M73.9319 118.511L72.4485 126.036" stroke="white" stroke-width="0.828725" stroke-linecap="round" stroke-linejoin="round"/>
<path d="M75.233 120.964L73.9319 126.558" stroke="white" stroke-width="0.828725" stroke-linecap="round" stroke-linejoin="round"/>
<path d="M55.6255 111.284C54.7222 111.011 52.2443 113.365 54.167 114.947C56.0896 116.53 56.5786 112.312 56.1062 110.696C56.1062 110.696 57.0758 113.737 57.9543 113.373" stroke="white" stroke-width="0.828725" stroke-linecap="round" stroke-linejoin="round"/>
<path d="M68.9845 98L72.2994 104.033C72.2994 104.033 70.6419 101.017 71.8105 99.8895C73.2359 98.4972 75.1254 101.439 72.7386 102.674" stroke="white" stroke-width="0.828725" stroke-linecap="round" stroke-linejoin="round"/>
<path d="M155.71 114.666L160.392 119.1" stroke="#263238" stroke-width="0.828725" stroke-linecap="round" stroke-linejoin="round"/>
<path d="M160.392 113.514L156.472 119.365" stroke="#263238" stroke-width="0.828725" stroke-linecap="round" stroke-linejoin="round"/>
<path d="M165 115.196L169.682 113.448" stroke="#263238" stroke-width="0.828725" stroke-linecap="round" stroke-linejoin="round"/>
<path d="M171.928 108.567L174.779 111.086" stroke="#263238" stroke-width="0.828725" stroke-linecap="round" stroke-linejoin="round"/>
<path d="M176.958 105.534L173.354 117.915" stroke="#263238" stroke-width="0.828725" stroke-linecap="round" stroke-linejoin="round"/>
<path d="M381.621 103.048L381.422 93.5835H388.574C388.574 93.5835 384.612 95.7713 386.435 100.86C388.259 105.948 391.192 103.048 391.192 103.048" stroke="#263238" stroke-width="0.828725" stroke-linecap="round" stroke-linejoin="round"/>
<path d="M370.988 161.912L370.64 180.119L386.593 172.876L370.988 161.912Z" stroke="#263238" stroke-width="0.828725" stroke-linecap="round" stroke-linejoin="round"/>
<path d="M370.988 161.912L378.587 176.407" stroke="#263238" stroke-width="0.828725" stroke-linecap="round" stroke-linejoin="round"/>
<path d="M377.369 174.077L379.217 173.182L380.46 175.66" stroke="#263238" stroke-width="0.828725" stroke-linecap="round" stroke-linejoin="round"/>
<path d="M231.895 160.188L238.491 167.257" stroke="#263238" stroke-width="0.828725" stroke-linecap="round" stroke-linejoin="round"/>
<path d="M238.541 159.235L232.997 166.826" stroke="#263238" stroke-width="0.828725" stroke-linecap="round" stroke-linejoin="round"/>
<path d="M241.243 155.531C241.559 155.384 241.921 155.368 242.249 155.488C242.577 155.608 242.844 155.852 242.991 156.169C243.043 156.282 243.08 156.402 243.099 156.525C243.422 158.116 240.812 160.188 240.812 160.188H244.533" stroke="#263238" stroke-width="0.828725" stroke-linecap="round" stroke-linejoin="round"/>
<path d="M351.413 74.5725C350.606 76.9542 349.267 79.1209 347.498 80.9084C345.729 82.696 343.576 84.0576 341.203 84.8901" stroke="#263238" stroke-width="0.828725" stroke-linecap="round" stroke-linejoin="round"/>
<path d="M484.227 83.4685L477.135 218.502L387.282 213.788L388.035 199.474L394.374 78.7439L450.951 81.7143L484.227 83.4685Z" fill="white"/>
<mask id="mask0_1126_4827" style="mask-type:luminance" maskUnits="userSpaceOnUse" x="387" y="78" width="98" height="141">
<path d="M484.227 83.4685L477.135 218.502L387.282 213.788L388.035 199.474L394.374 78.7439L450.951 81.7143L484.227 83.4685Z" fill="white"/>
</mask>
<g mask="url(#mask0_1126_4827)">
<path opacity="0.2" d="M456.181 162.581L435.938 164.249L441.846 189.745L388.035 199.474L394.374 78.7439L450.951 81.7143L456.181 162.581Z" fill="black" fill-opacity="0.7"/>
</g>
<path d="M400.713 87.978L424.099 89.2049" stroke="#263238" stroke-width="2.15244" stroke-linecap="round" stroke-linejoin="round"/>
<path d="M400.476 92.4658L416.383 93.3053" stroke="#263238" stroke-width="2.15244" stroke-linecap="round" stroke-linejoin="round"/>
<path d="M405.62 103.368L472.884 106.898" stroke="#263238" stroke-width="1.0651" stroke-linecap="round" stroke-linejoin="round"/>
<path d="M405.384 107.855L472.647 111.385" stroke="#263238" stroke-width="1.0651" stroke-linecap="round" stroke-linejoin="round"/>
<path d="M405.115 113.097L462.477 116.099" stroke="#263238" stroke-width="1.0651" stroke-linecap="round" stroke-linejoin="round"/>
<path d="M405.138 117.878L404.851 123.348L410.321 123.636L410.609 118.165L405.138 117.878Z" stroke="#263238" stroke-width="1.07622" stroke-linecap="round" stroke-linejoin="round"/>
<path d="M415.054 118.403L414.766 123.874L420.237 124.161L420.524 118.691L415.054 118.403Z" stroke="#263238" stroke-width="1.07622" stroke-linecap="round" stroke-linejoin="round"/>
<path d="M424.957 118.929L424.67 124.399L430.14 124.687L430.428 119.216L424.957 118.929Z" stroke="#263238" stroke-width="1.07622" stroke-linecap="round" stroke-linejoin="round"/>
<path d="M434.873 119.454L434.585 124.924L440.055 125.212L440.343 119.741L434.873 119.454Z" stroke="#263238" stroke-width="1.07622" stroke-linecap="round" stroke-linejoin="round"/>
<path d="M402.037 103.174C402.03 103.352 401.988 103.527 401.913 103.689C401.838 103.851 401.733 103.996 401.602 104.117C401.471 104.238 401.317 104.332 401.15 104.394C400.983 104.455 400.805 104.483 400.627 104.476C400.264 104.458 399.924 104.296 399.681 104.026C399.438 103.757 399.311 103.402 399.33 103.039C399.348 102.677 399.51 102.337 399.78 102.093C400.049 101.85 400.404 101.724 400.767 101.743C400.945 101.751 401.12 101.794 401.281 101.87C401.442 101.946 401.587 102.053 401.707 102.185C401.827 102.317 401.92 102.471 401.98 102.639C402.04 102.807 402.067 102.985 402.058 103.163L402.037 103.174Z" fill="#263238"/>
<path d="M404.243 129.552L471.506 133.082" stroke="#263238" stroke-width="1.0651" stroke-linecap="round" stroke-linejoin="round"/>
<path d="M404.006 134.04L471.269 137.57" stroke="#263238" stroke-width="1.0651" stroke-linecap="round" stroke-linejoin="round"/>
<path d="M403.737 139.281L461.1 142.284" stroke="#263238" stroke-width="1.0651" stroke-linecap="round" stroke-linejoin="round"/>
<path d="M403.749 144.079L403.461 149.55L408.931 149.837L409.219 144.367L403.749 144.079Z" stroke="#263238" stroke-width="1.07622" stroke-linecap="round" stroke-linejoin="round"/>
<path d="M413.675 144.593L413.387 150.064L418.858 150.351L419.145 144.881L413.675 144.593Z" stroke="#263238" stroke-width="1.07622" stroke-linecap="round" stroke-linejoin="round"/>
<path d="M423.579 145.108L423.291 150.579L428.762 150.866L429.049 145.396L423.579 145.108Z" stroke="#263238" stroke-width="1.07622" stroke-linecap="round" stroke-linejoin="round"/>
<path d="M433.483 145.634L433.196 151.104L438.666 151.392L438.954 145.921L433.483 145.634Z" stroke="#263238" stroke-width="1.07622" stroke-linecap="round" stroke-linejoin="round"/>
<path d="M400.67 129.359C400.662 129.538 400.618 129.714 400.542 129.877C400.465 130.04 400.357 130.186 400.224 130.307C400.091 130.428 399.936 130.521 399.767 130.582C399.598 130.643 399.418 130.669 399.239 130.661C398.967 130.648 398.705 130.554 398.486 130.392C398.267 130.231 398.1 130.007 398.008 129.751C397.916 129.495 397.902 129.217 397.968 128.953C398.033 128.688 398.176 128.45 398.377 128.266C398.579 128.083 398.83 127.963 399.099 127.923C399.368 127.882 399.644 127.922 399.89 128.038C400.137 128.154 400.343 128.34 400.484 128.573C400.625 128.806 400.693 129.076 400.681 129.348L400.67 129.359Z" fill="#263238"/>
<path d="M402.876 155.737L470.129 159.267" stroke="#263238" stroke-width="1.0651" stroke-linecap="round" stroke-linejoin="round"/>
<path d="M402.639 160.224L469.892 163.754" stroke="#263238" stroke-width="1.0651" stroke-linecap="round" stroke-linejoin="round"/>
<path d="M402.36 165.455L459.722 168.468" stroke="#263238" stroke-width="1.0651" stroke-linecap="round" stroke-linejoin="round"/>
<path d="M402.382 170.248L402.094 175.718L407.565 176.006L407.852 170.535L402.382 170.248Z" stroke="#263238" stroke-width="1.07622" stroke-linecap="round" stroke-linejoin="round"/>
<path d="M413.458 170.74L413.184 176.222L418.666 176.496L418.94 171.014L413.458 170.74Z" stroke="#263238" stroke-width="1.07756" stroke-linecap="round" stroke-linejoin="round"/>
<path d="M422.2 171.299L421.913 176.769L427.383 177.057L427.671 171.587L422.2 171.299Z" stroke="#263238" stroke-width="1.07622" stroke-linecap="round" stroke-linejoin="round"/>
<path d="M432.127 171.813L431.839 177.283L437.31 177.571L437.597 172.1L432.127 171.813Z" stroke="#263238" stroke-width="1.07622" stroke-linecap="round" stroke-linejoin="round"/>
<path d="M399.292 155.543C399.284 155.723 399.24 155.899 399.164 156.062C399.087 156.224 398.979 156.37 398.847 156.491C398.714 156.612 398.558 156.706 398.389 156.767C398.22 156.827 398.04 156.854 397.861 156.845C397.495 156.845 397.145 156.7 396.887 156.442C396.628 156.184 396.483 155.833 396.483 155.468C396.483 155.103 396.628 154.752 396.887 154.494C397.145 154.235 397.495 154.09 397.861 154.09H398.054C398.234 154.099 398.41 154.142 398.573 154.219C398.735 154.295 398.881 154.403 399.002 154.536C399.123 154.669 399.217 154.824 399.278 154.993C399.339 155.163 399.365 155.342 399.357 155.522L399.292 155.543Z" fill="#263238"/>
<path d="M401.456 182.664L468.708 186.204" stroke="#263238" stroke-width="1.0651" stroke-linecap="round" stroke-linejoin="round"/>
<path d="M401.219 187.152L468.482 190.692" stroke="#263238" stroke-width="1.0651" stroke-linecap="round" stroke-linejoin="round"/>
<path d="M400.949 192.393L458.312 195.406" stroke="#263238" stroke-width="1.0651" stroke-linecap="round" stroke-linejoin="round"/>
<path d="M400.956 197.188L400.668 202.658L406.139 202.946L406.426 197.476L400.956 197.188Z" stroke="#263238" stroke-width="1.07622" stroke-linecap="round" stroke-linejoin="round"/>
<path d="M410.884 197.703L410.596 203.173L416.066 203.461L416.354 197.99L410.884 197.703Z" stroke="#263238" stroke-width="1.07622" stroke-linecap="round" stroke-linejoin="round"/>
<path d="M420.809 198.218L420.522 203.688L425.992 203.976L426.28 198.505L420.809 198.218Z" stroke="#263238" stroke-width="1.07622" stroke-linecap="round" stroke-linejoin="round"/>
<path d="M430.714 198.754L430.426 204.224L435.896 204.512L436.184 199.042L430.714 198.754Z" stroke="#263238" stroke-width="1.07622" stroke-linecap="round" stroke-linejoin="round"/>
<path d="M397.872 182.481C397.857 182.75 397.762 183.01 397.599 183.225C397.437 183.441 397.214 183.604 396.959 183.693C396.704 183.783 396.428 183.794 396.167 183.727C395.905 183.66 395.669 183.516 395.489 183.315C395.309 183.114 395.192 182.864 395.154 182.596C395.116 182.329 395.158 182.056 395.275 181.813C395.391 181.569 395.578 181.365 395.81 181.228C396.043 181.09 396.311 181.024 396.58 181.039C396.76 181.048 396.936 181.093 397.098 181.171C397.26 181.249 397.405 181.358 397.525 181.492C397.645 181.626 397.738 181.782 397.797 181.952C397.857 182.121 397.882 182.301 397.872 182.481Z" fill="#263238"/>
<path d="M406.998 120.157L407.708 121.384L410.625 118.166" stroke="#263238" stroke-width="2.15244" stroke-linecap="round" stroke-linejoin="round"/>
<path d="M425.466 147.052L426.176 148.278L429.093 145.061" stroke="#263238" stroke-width="2.15244" stroke-linecap="round" stroke-linejoin="round"/>
<path d="M434.732 174.689L435.442 175.915L438.359 172.687" stroke="#4E73D3" stroke-width="2.15244" stroke-linecap="round" stroke-linejoin="round"/>
<path d="M412.777 199.356L413.488 200.572L416.404 197.354" stroke="#4E73D3" stroke-width="2.15244" stroke-linecap="round" stroke-linejoin="round"/>
<path d="M424.519 180.285L337.829 204.382L301.625 74.0838L337.517 64.1073L388.315 49.998L421.161 168.21L424.519 180.285Z" fill="white"/>
<mask id="mask1_1126_4827" style="mask-type:luminance" maskUnits="userSpaceOnUse" x="301" y="49" width="124" height="156">
<path d="M424.519 180.285L337.829 204.382L301.625 74.0838L337.517 64.1073L388.315 49.998L421.161 168.21L424.519 180.285Z" fill="white"/>
</mask>
<g mask="url(#mask1_1126_4827)">
<path opacity="0.2" d="M421.161 168.21L354.134 172.547L337.517 64.1073L388.315 49.998L421.161 168.21Z" fill="black" fill-opacity="0.7"/>
</g>
<path d="M310.58 80.821L333.137 74.5574" stroke="#263238" stroke-width="1.0651" stroke-linecap="round" stroke-linejoin="round"/>
<path d="M311.774 85.1583L327.121 80.8965" stroke="#263238" stroke-width="1.0651" stroke-linecap="round" stroke-linejoin="round"/>
<path d="M320.115 93.854L385.011 75.8274" stroke="#263238" stroke-width="1.0651" stroke-linecap="round" stroke-linejoin="round"/>
<path d="M321.32 98.1805L386.216 80.1538" stroke="#263238" stroke-width="1.0651" stroke-linecap="round" stroke-linejoin="round"/>
<path d="M322.719 103.239L378.069 87.8596" stroke="#263238" stroke-width="1.0651" stroke-linecap="round" stroke-linejoin="round"/>
<path d="M329.558 106.3L324.281 107.767L325.747 113.045L331.025 111.578L329.558 106.3Z" stroke="#263238" stroke-width="1.07622" stroke-linecap="round" stroke-linejoin="round"/>
<path d="M339.128 103.632L333.85 105.098L335.317 110.376L340.594 108.91L339.128 103.632Z" stroke="#263238" stroke-width="1.07622" stroke-linecap="round" stroke-linejoin="round"/>
<path d="M348.699 100.97L343.421 102.437L344.888 107.715L350.166 106.248L348.699 100.97Z" stroke="#263238" stroke-width="1.07622" stroke-linecap="round" stroke-linejoin="round"/>
<path d="M358.254 98.3175L352.976 99.7842L354.442 105.062L359.72 103.595L358.254 98.3175Z" stroke="#263238" stroke-width="1.07622" stroke-linecap="round" stroke-linejoin="round"/>
<path d="M316.66 94.8119C316.757 95.1615 316.711 95.5354 316.533 95.8513C316.354 96.1671 316.057 96.3991 315.708 96.4961C315.358 96.5932 314.984 96.5474 314.668 96.3687C314.352 96.1901 314.12 95.8933 314.023 95.5437C313.926 95.194 313.972 94.8201 314.151 94.5043C314.329 94.1884 314.626 93.9565 314.976 93.8594C315.325 93.7624 315.699 93.8082 316.015 93.9868C316.331 94.1654 316.563 94.4622 316.66 94.8119Z" fill="#263238"/>
<path d="M327.132 119.113L392.028 101.086" stroke="#263238" stroke-width="1.0651" stroke-linecap="round" stroke-linejoin="round"/>
<path d="M328.337 123.45L393.233 105.413" stroke="#263238" stroke-width="1.0651" stroke-linecap="round" stroke-linejoin="round"/>
<path d="M329.747 128.498L385.086 113.119" stroke="#263238" stroke-width="1.0651" stroke-linecap="round" stroke-linejoin="round"/>
<path d="M336.582 131.553L331.304 133.02L332.77 138.298L338.048 136.831L336.582 131.553Z" stroke="#263238" stroke-width="1.07622" stroke-linecap="round" stroke-linejoin="round"/>
<path d="M346.143 128.898L340.865 130.365L342.332 135.643L347.61 134.176L346.143 128.898Z" stroke="#263238" stroke-width="1.07622" stroke-linecap="round" stroke-linejoin="round"/>
<path d="M355.715 126.24L350.437 127.706L351.904 132.984L357.182 131.518L355.715 126.24Z" stroke="#263238" stroke-width="1.07622" stroke-linecap="round" stroke-linejoin="round"/>
<path d="M365.295 123.568L360.017 125.035L361.484 130.313L366.761 128.846L365.295 123.568Z" stroke="#263238" stroke-width="1.07622" stroke-linecap="round" stroke-linejoin="round"/>
<path d="M323.688 120.082C323.761 120.344 323.754 120.622 323.669 120.881C323.584 121.139 323.424 121.367 323.21 121.535C322.995 121.702 322.736 121.803 322.465 121.823C322.193 121.844 321.922 121.784 321.684 121.65C321.447 121.516 321.255 121.316 321.132 121.073C321.009 120.83 320.96 120.556 320.993 120.286C321.025 120.015 321.137 119.761 321.314 119.554C321.491 119.347 321.725 119.197 321.987 119.124C322.161 119.075 322.342 119.06 322.52 119.081C322.699 119.102 322.872 119.158 323.029 119.246C323.186 119.334 323.324 119.452 323.435 119.594C323.547 119.735 323.629 119.897 323.677 120.071L323.688 120.082Z" fill="#263238"/>
<path d="M334.159 144.383L399.045 126.345" stroke="#263238" stroke-width="1.0651" stroke-linecap="round" stroke-linejoin="round"/>
<path d="M335.365 148.709L400.25 130.682" stroke="#263238" stroke-width="1.0651" stroke-linecap="round" stroke-linejoin="round"/>
<path d="M336.764 153.767L392.114 138.388" stroke="#263238" stroke-width="1.0651" stroke-linecap="round" stroke-linejoin="round"/>
<path d="M343.594 156.812L338.316 158.279L339.783 163.557L345.061 162.09L343.594 156.812Z" stroke="#263238" stroke-width="1.07622" stroke-linecap="round" stroke-linejoin="round"/>
<path d="M353.177 154.151L347.899 155.618L349.366 160.896L354.644 159.429L353.177 154.151Z" stroke="#263238" stroke-width="1.07622" stroke-linecap="round" stroke-linejoin="round"/>
<path d="M362.728 151.496L357.45 152.962L358.917 158.24L364.195 156.774L362.728 151.496Z" stroke="#263238" stroke-width="1.07622" stroke-linecap="round" stroke-linejoin="round"/>
<path d="M372.3 148.838L367.022 150.304L368.488 155.582L373.766 154.115L372.3 148.838Z" stroke="#263238" stroke-width="1.07622" stroke-linecap="round" stroke-linejoin="round"/>
<path d="M330.705 145.34C330.778 145.603 330.771 145.881 330.686 146.139C330.601 146.398 330.441 146.625 330.227 146.793C330.012 146.961 329.753 147.062 329.482 147.082C329.21 147.103 328.939 147.043 328.701 146.909C328.464 146.775 328.272 146.574 328.149 146.332C328.026 146.089 327.977 145.815 328.01 145.545C328.042 145.274 328.154 145.02 328.331 144.813C328.508 144.606 328.742 144.456 329.005 144.383C329.178 144.333 329.359 144.319 329.538 144.34C329.716 144.361 329.889 144.417 330.046 144.505C330.203 144.593 330.341 144.711 330.452 144.853C330.564 144.994 330.646 145.156 330.694 145.33L330.705 145.34Z" fill="#263238"/>
<path d="M341.381 170.362L406.266 152.336" stroke="#263238" stroke-width="1.0651" stroke-linecap="round" stroke-linejoin="round"/>
<path d="M342.575 174.7L407.471 156.662" stroke="#263238" stroke-width="1.0651" stroke-linecap="round" stroke-linejoin="round"/>
<path d="M343.985 179.747L399.335 164.368" stroke="#263238" stroke-width="1.0651" stroke-linecap="round" stroke-linejoin="round"/>
<path d="M350.817 182.805L345.539 184.272L347.006 189.55L352.284 188.083L350.817 182.805Z" stroke="#263238" stroke-width="1.07622" stroke-linecap="round" stroke-linejoin="round"/>
<path d="M360.389 180.144L355.111 181.61L356.577 186.888L361.855 185.422L360.389 180.144Z" stroke="#263238" stroke-width="1.07622" stroke-linecap="round" stroke-linejoin="round"/>
<path d="M369.961 177.486L364.683 178.952L366.149 184.23L371.427 182.764L369.961 177.486Z" stroke="#263238" stroke-width="1.07622" stroke-linecap="round" stroke-linejoin="round"/>
<path d="M379.522 174.83L374.244 176.297L375.711 181.575L380.989 180.108L379.522 174.83Z" stroke="#263238" stroke-width="1.07622" stroke-linecap="round" stroke-linejoin="round"/>
<path d="M337.926 171.32C338.028 171.671 337.985 172.048 337.809 172.368C337.632 172.688 337.336 172.925 336.985 173.026C336.634 173.127 336.257 173.085 335.937 172.908C335.617 172.732 335.38 172.435 335.279 172.084C335.179 171.732 335.223 171.354 335.4 171.034C335.577 170.713 335.874 170.476 336.226 170.373C336.574 170.276 336.946 170.32 337.262 170.495C337.578 170.671 337.813 170.963 337.916 171.309L337.926 171.32Z" fill="#263238"/>
<path d="M335.763 106.823L336.828 107.759L338.572 103.777" stroke="#4E73D3" stroke-width="2.15244" stroke-linecap="round" stroke-linejoin="round"/>
<path d="M333.169 135.009L334.235 135.945L335.968 131.963" stroke="#4E73D3" stroke-width="2.15244" stroke-linecap="round" stroke-linejoin="round"/>
<path d="M340.186 160.009L341.251 160.946L342.984 156.964" stroke="#4E73D3" stroke-width="2.15244" stroke-linecap="round" stroke-linejoin="round"/>
<path d="M366.521 180.49L367.587 181.426L369.33 177.444" stroke="#4E73D3" stroke-width="2.15244" stroke-linecap="round" stroke-linejoin="round"/>
<path d="M432.984 19.8995L343.425 28.5073L356.362 163.114L445.922 154.506L432.984 19.8995Z" fill="white"/>
<path d="M351.056 36.7178L374.367 34.4792" stroke="#263238" stroke-width="1.0651" stroke-linecap="round" stroke-linejoin="round"/>
<path d="M351.487 41.1947L367.34 39.6665" stroke="#263238" stroke-width="1.0651" stroke-linecap="round" stroke-linejoin="round"/>
<path d="M358.181 51.2144L425.219 44.7678" stroke="#263238" stroke-width="1.0651" stroke-linecap="round" stroke-linejoin="round"/>
<path d="M358.611 55.6807L425.649 49.2449" stroke="#263238" stroke-width="1.0651" stroke-linecap="round" stroke-linejoin="round"/>
<path d="M359.117 60.9003L416.296 55.4116" stroke="#263238" stroke-width="1.0651" stroke-linecap="round" stroke-linejoin="round"/>
<path d="M365.324 65.098L359.871 65.6221L360.395 71.0749L365.848 70.5508L365.324 65.098Z" stroke="#263238" stroke-width="1.07622" stroke-linecap="round" stroke-linejoin="round"/>
<path d="M375.207 64.1451L369.754 64.6692L370.278 70.122L375.731 69.5979L375.207 64.1451Z" stroke="#263238" stroke-width="1.07622" stroke-linecap="round" stroke-linejoin="round"/>
<path d="M385.091 63.2044L379.638 63.7285L380.162 69.1814L385.615 68.6573L385.091 63.2044Z" stroke="#263238" stroke-width="1.07622" stroke-linecap="round" stroke-linejoin="round"/>
<path d="M394.974 62.242L389.521 62.7661L390.045 68.2189L395.498 67.6948L394.974 62.242Z" stroke="#263238" stroke-width="1.07622" stroke-linecap="round" stroke-linejoin="round"/>
<path d="M354.618 51.5588C354.645 51.8299 354.59 52.1027 354.461 52.3428C354.333 52.5828 354.136 52.7794 353.895 52.9076C353.655 53.0357 353.382 53.0898 353.111 53.0629C352.84 53.036 352.583 52.9294 352.373 52.7566C352.162 52.5837 352.008 52.3523 351.929 52.0917C351.85 51.831 351.85 51.5528 351.929 51.2922C352.008 51.0315 352.163 50.8002 352.373 50.6274C352.584 50.4546 352.841 50.348 353.112 50.3212C353.29 50.3034 353.471 50.321 353.643 50.373C353.815 50.425 353.975 50.5105 354.114 50.6244C354.253 50.7384 354.368 50.8786 354.453 51.0371C354.537 51.1956 354.59 51.3692 354.608 51.5481L354.618 51.5588Z" fill="#263238"/>
<path d="M360.688 77.3125L427.726 70.8767" stroke="#263238" stroke-width="1.0651" stroke-linecap="round" stroke-linejoin="round"/>
<path d="M361.119 81.7896L428.156 75.343" stroke="#263238" stroke-width="1.0651" stroke-linecap="round" stroke-linejoin="round"/>
<path d="M361.625 87.0095L418.804 81.51" stroke="#263238" stroke-width="1.0651" stroke-linecap="round" stroke-linejoin="round"/>
<path d="M367.83 91.1917L362.377 91.7158L362.902 97.1686L368.354 96.6445L367.83 91.1917Z" stroke="#263238" stroke-width="1.07622" stroke-linecap="round" stroke-linejoin="round"/>
<path d="M377.714 90.2498L372.261 90.7739L372.785 96.2268L378.238 95.7027L377.714 90.2498Z" stroke="#263238" stroke-width="1.07622" stroke-linecap="round" stroke-linejoin="round"/>
<path d="M387.598 89.2984L382.145 89.8225L382.669 95.2753L388.122 94.7513L387.598 89.2984Z" stroke="#263238" stroke-width="1.07622" stroke-linecap="round" stroke-linejoin="round"/>
<path d="M397.482 88.368L392.03 88.8921L392.554 94.3449L398.006 93.8208L397.482 88.368Z" stroke="#263238" stroke-width="1.07622" stroke-linecap="round" stroke-linejoin="round"/>
<path d="M357.126 77.6569C357.152 77.928 357.098 78.2008 356.969 78.4409C356.84 78.6809 356.643 78.8775 356.403 79.0056C356.163 79.1338 355.89 79.1879 355.619 79.161C355.348 79.1341 355.091 79.0275 354.88 78.8546C354.67 78.6818 354.515 78.4504 354.436 78.1897C354.357 77.9291 354.357 77.6509 354.437 77.3903C354.516 77.1296 354.67 76.8983 354.881 76.7255C355.091 76.5527 355.348 76.4461 355.619 76.4193C355.799 76.4015 355.981 76.4193 356.155 76.4719C356.328 76.5245 356.489 76.6107 356.629 76.7257C356.769 76.8406 356.885 76.9821 356.97 77.1418C357.055 77.3016 357.108 77.4767 357.126 77.6569Z" fill="#263238"/>
<path d="M363.196 103.411L430.233 96.9751" stroke="#263238" stroke-width="1.0651" stroke-linecap="round" stroke-linejoin="round"/>
<path d="M363.627 107.888L430.664 101.441" stroke="#263238" stroke-width="1.0651" stroke-linecap="round" stroke-linejoin="round"/>
<path d="M364.132 113.107L421.312 107.608" stroke="#263238" stroke-width="1.0651" stroke-linecap="round" stroke-linejoin="round"/>
<path d="M370.337 117.296L364.885 117.82L365.409 123.273L370.861 122.749L370.337 117.296Z" stroke="#263238" stroke-width="1.07622" stroke-linecap="round" stroke-linejoin="round"/>
<path d="M380.221 116.345L374.768 116.869L375.292 122.322L380.745 121.797L380.221 116.345Z" stroke="#263238" stroke-width="1.07622" stroke-linecap="round" stroke-linejoin="round"/>
<path d="M390.105 115.403L384.652 115.927L385.176 121.38L390.629 120.856L390.105 115.403Z" stroke="#263238" stroke-width="1.07622" stroke-linecap="round" stroke-linejoin="round"/>
<path d="M399.988 114.451L394.535 114.975L395.059 120.428L400.512 119.904L399.988 114.451Z" stroke="#263238" stroke-width="1.07622" stroke-linecap="round" stroke-linejoin="round"/>
<path d="M359.623 103.755C359.647 104.025 359.592 104.295 359.462 104.533C359.333 104.77 359.136 104.964 358.897 105.089C358.658 105.215 358.386 105.267 358.118 105.238C357.849 105.21 357.594 105.102 357.387 104.929C357.179 104.756 357.027 104.525 356.951 104.266C356.874 104.007 356.876 103.731 356.957 103.473C357.037 103.214 357.192 102.986 357.403 102.816C357.613 102.646 357.869 102.542 358.138 102.518C358.317 102.502 358.497 102.521 358.668 102.574C358.84 102.627 358.999 102.714 359.137 102.829C359.275 102.944 359.389 103.085 359.472 103.244C359.556 103.403 359.607 103.577 359.623 103.755Z" fill="#263238"/>
<path d="M365.779 130.262L432.817 123.816" stroke="#263238" stroke-width="1.0651" stroke-linecap="round" stroke-linejoin="round"/>
<path d="M366.209 134.729L433.247 128.293" stroke="#263238" stroke-width="1.0651" stroke-linecap="round" stroke-linejoin="round"/>
<path d="M366.704 139.948L423.884 134.46" stroke="#263238" stroke-width="1.0651" stroke-linecap="round" stroke-linejoin="round"/>
<path d="M372.916 144.144L367.463 144.668L367.987 150.121L373.44 149.597L372.916 144.144Z" stroke="#263238" stroke-width="1.07622" stroke-linecap="round" stroke-linejoin="round"/>
<path d="M382.81 143.202L377.357 143.726L377.881 149.179L383.334 148.655L382.81 143.202Z" stroke="#263238" stroke-width="1.07622" stroke-linecap="round" stroke-linejoin="round"/>
<path d="M392.682 142.24L387.229 142.764L387.754 148.217L393.206 147.693L392.682 142.24Z" stroke="#263238" stroke-width="1.07622" stroke-linecap="round" stroke-linejoin="round"/>
<path d="M402.566 141.288L397.113 141.812L397.637 147.265L403.09 146.741L402.566 141.288Z" stroke="#263238" stroke-width="1.07622" stroke-linecap="round" stroke-linejoin="round"/>
<path d="M362.206 130.596C362.234 130.868 362.182 131.142 362.054 131.384C361.927 131.626 361.73 131.824 361.49 131.954C361.249 132.083 360.976 132.139 360.704 132.113C360.432 132.086 360.174 131.98 359.962 131.806C359.751 131.633 359.596 131.401 359.517 131.139C359.438 130.878 359.439 130.599 359.519 130.337C359.599 130.076 359.755 129.845 359.967 129.672C360.179 129.5 360.438 129.395 360.71 129.37C360.889 129.352 361.069 129.369 361.241 129.421C361.413 129.473 361.573 129.559 361.712 129.673C361.851 129.787 361.966 129.927 362.051 130.085C362.136 130.244 362.188 130.418 362.206 130.596Z" fill="#263238"/>
<path d="M362.023 67.6157L362.905 68.7242L365.316 65.1082" stroke="#4E73D3" stroke-width="2.15244" stroke-linecap="round" stroke-linejoin="round"/>
<path d="M384.268 91.4864L385.151 92.5949L387.551 88.9788" stroke="#4E73D3" stroke-width="2.15244" stroke-linecap="round" stroke-linejoin="round"/>
<path d="M376.939 119.081L377.822 120.189L380.232 116.573" stroke="#4E73D3" stroke-width="2.15244" stroke-linecap="round" stroke-linejoin="round"/>
<path d="M399.142 143.823L400.024 144.931L402.435 141.315" stroke="#4E73D3" stroke-width="2.15244" stroke-linecap="round" stroke-linejoin="round"/>
<path d="M272.632 150.506L229.282 310.41H222.803L266.143 150.506H272.632Z" fill="#13191F" stroke="#263238" stroke-width="1.07622" stroke-linecap="round" stroke-linejoin="round"/>
<path d="M131.164 114.593L184.253 310.464H190.711L137.632 114.593C135.673 107.371 140.161 101.495 147.64 101.495H193.38C200.849 101.495 208.533 107.371 210.492 114.593L263.592 310.464H270.05L216.96 114.593C214.065 103.906 202.743 95.2207 191.679 95.2207H145.929C134.898 95.2207 128.269 103.895 131.164 114.593Z" fill="#13191F" stroke="#263238" stroke-width="1.07622" stroke-linecap="round" stroke-linejoin="round"/>
<path d="M130.324 114.646L143.497 163.27C144.132 165.317 145.385 167.116 147.085 168.421C148.785 169.726 150.848 170.472 152.989 170.556H228.152C229.059 170.627 229.968 170.47 230.798 170.1C231.629 169.729 232.353 169.156 232.905 168.434C233.457 167.712 233.82 166.863 233.959 165.965C234.099 165.066 234.012 164.147 233.706 163.291L220.522 114.668C219.882 112.626 218.626 110.832 216.927 109.531C215.228 108.231 213.168 107.487 211.03 107.403H135.877C135.161 107.352 134.441 107.443 133.759 107.67C133.078 107.897 132.447 108.256 131.905 108.727C131.362 109.197 130.917 109.771 130.596 110.413C130.275 111.056 130.084 111.756 130.033 112.472C129.984 113.209 130.083 113.948 130.324 114.646Z" fill="white"/>
<mask id="mask2_1126_4827" style="mask-type:luminance" maskUnits="userSpaceOnUse" x="130" y="107" width="105" height="64">
<path d="M130.324 114.646L143.497 163.27C144.132 165.317 145.385 167.116 147.085 168.421C148.785 169.726 150.848 170.472 152.989 170.556H228.152C229.059 170.627 229.968 170.47 230.798 170.1C231.629 169.729 232.353 169.156 232.905 168.434C233.457 167.712 233.82 166.863 233.959 165.965C234.099 165.066 234.012 164.147 233.706 163.291L220.522 114.668C219.882 112.626 218.626 110.832 216.927 109.531C215.228 108.231 213.168 107.487 211.03 107.403H135.877C135.161 107.352 134.441 107.443 133.759 107.67C133.078 107.897 132.447 108.256 131.905 108.727C131.362 109.197 130.917 109.771 130.596 110.413C130.275 111.056 130.084 111.756 130.033 112.472C129.984 113.209 130.083 113.948 130.324 114.646Z" fill="white"/>
</mask>
<g mask="url(#mask2_1126_4827)">
<path opacity="0.2" d="M130.324 114.646L143.497 163.27C144.132 165.316 145.385 167.116 147.085 168.421C148.785 169.726 150.848 170.472 152.989 170.556H228.152C229.059 170.627 229.968 170.47 230.798 170.099C231.629 169.729 232.353 169.156 232.905 168.434C233.457 167.712 233.82 166.863 233.959 165.964C234.099 165.066 234.012 164.147 233.706 163.291L220.522 114.668C219.882 112.626 218.626 110.832 216.927 109.531C215.228 108.231 213.168 107.487 211.03 107.403H172.167C155.368 124.623 157.509 156.36 158.607 165.939C156.854 165.516 155.239 164.648 153.919 163.419C152.6 162.19 151.619 160.641 151.073 158.922L137.922 110.287C137.654 109.346 137.598 108.357 137.761 107.392H135.877C134.974 107.328 134.068 107.488 133.242 107.86C132.416 108.232 131.696 108.803 131.145 109.522C130.594 110.241 130.231 111.086 130.088 111.981C129.945 112.875 130.026 113.791 130.324 114.646Z" fill="black" fill-opacity="0.7"/>
</g>
<path d="M130.324 114.646L143.497 163.27C144.132 165.317 145.385 167.116 147.085 168.421C148.785 169.726 150.848 170.472 152.989 170.556H228.152C229.059 170.627 229.968 170.47 230.798 170.1C231.629 169.729 232.353 169.156 232.905 168.434C233.457 167.712 233.82 166.863 233.959 165.965C234.099 165.066 234.012 164.147 233.706 163.291L220.522 114.668C219.882 112.626 218.626 110.832 216.927 109.531C215.228 108.231 213.168 107.487 211.03 107.403H135.877C135.161 107.352 134.441 107.443 133.759 107.67C133.078 107.897 132.447 108.256 131.905 108.727C131.362 109.197 130.917 109.771 130.596 110.413C130.275 111.056 130.084 111.756 130.033 112.472C129.984 113.209 130.083 113.948 130.324 114.646Z" stroke="#263238" stroke-width="1.07622" stroke-linecap="round" stroke-linejoin="round"/>
<path d="M174.513 219.75L149.933 310.41H143.454L168.024 219.75H174.513Z" fill="#13191F" stroke="#263238" stroke-width="1.07622" stroke-linecap="round" stroke-linejoin="round"/>
<path d="M168.002 209.3V218.168H264.776V209.3C264.776 207.57 264.089 205.911 262.866 204.688C261.643 203.465 259.984 202.778 258.254 202.778H174.535C173.677 202.775 172.827 202.942 172.034 203.268C171.241 203.595 170.52 204.075 169.913 204.681C169.306 205.287 168.825 206.007 168.497 206.8C168.169 207.592 168.001 208.442 168.002 209.3Z" fill="white"/>
<mask id="mask3_1126_4827" style="mask-type:luminance" maskUnits="userSpaceOnUse" x="168" y="202" width="97" height="17">
<path d="M168.002 209.3V218.168H264.776V209.3C264.776 207.57 264.089 205.911 262.866 204.688C261.643 203.465 259.984 202.778 258.254 202.778H174.535C173.677 202.775 172.827 202.942 172.034 203.268C171.241 203.595 170.52 204.075 169.913 204.681C169.306 205.287 168.825 206.007 168.497 206.8C168.169 207.592 168.001 208.442 168.002 209.3Z" fill="white"/>
</mask>
<g mask="url(#mask3_1126_4827)">
<path opacity="0.2" d="M168.228 207.632C171.36 211.312 176.978 215.057 186.642 218.211H264.776V209.3C264.776 207.57 264.089 205.911 262.866 204.688C261.643 203.465 259.984 202.778 258.254 202.778H174.535C173.096 202.779 171.698 203.256 170.557 204.134C169.417 205.011 168.598 206.241 168.228 207.632Z" fill="black" fill-opacity="0.7"/>
</g>
<path d="M168.002 209.3V218.168H264.776V209.3C264.776 207.57 264.089 205.911 262.866 204.688C261.643 203.465 259.984 202.778 258.254 202.778H174.535C173.677 202.775 172.827 202.942 172.034 203.268C171.241 203.595 170.52 204.075 169.913 204.681C169.306 205.287 168.825 206.007 168.497 206.8C168.169 207.592 168.001 208.442 168.002 209.3Z" stroke="#263238" stroke-width="1.07622" stroke-linecap="round" stroke-linejoin="round"/>
<path d="M164.72 215.488H267.219C268.235 215.488 269.059 216.312 269.059 217.328V221.967C269.059 222.983 268.235 223.807 267.219 223.807H164.72C163.704 223.807 162.88 222.983 162.88 221.967V217.328C162.88 216.312 163.704 215.488 164.72 215.488Z" fill="#13191F" stroke="#263238" stroke-width="1.07622" stroke-linecap="round" stroke-linejoin="round"/>
<path d="M267.918 215.757C272.557 220.482 250.075 294.719 250.075 294.719C252.528 296.871 256.145 297.862 259.567 298.314C262.713 298.704 265.892 298.751 269.048 298.454C269.048 298.454 301.27 220.299 292.402 200.905C283.534 181.512 228.507 172.708 228.507 172.708L226.161 166.897L197.695 162.893L192.992 197.752C192.992 197.752 197.663 198.204 204.691 199.108C223.535 201.497 259.395 207.147 267.918 215.757Z" fill="#263238"/>
<mask id="mask4_1126_4827" style="mask-type:luminance" maskUnits="userSpaceOnUse" x="192" y="162" width="102" height="137">
<path d="M267.918 215.757C272.557 220.482 250.075 294.719 250.075 294.719C252.528 296.871 256.145 297.862 259.567 298.314C262.713 298.704 265.892 298.751 269.048 298.454C269.048 298.454 301.27 220.299 292.402 200.905C283.534 181.512 228.507 172.708 228.507 172.708L226.161 166.897L197.695 162.893L192.992 197.752C192.992 197.752 197.663 198.204 204.691 199.108C223.535 201.497 259.395 207.147 267.918 215.757Z" fill="white"/>
</mask>
<g mask="url(#mask4_1126_4827)">
<path opacity="0.3" d="M250.075 294.762C252.529 296.915 256.145 297.905 259.567 298.357C265.82 275.11 281.737 213.077 275.71 205.49C268.274 196.127 231.467 187.614 231.467 187.614C231.316 182.835 218.412 178.531 218.412 178.531L204.701 199.076C223.546 201.497 259.406 207.147 267.929 215.757C272.557 220.525 250.075 294.762 250.075 294.762Z" fill="black"/>
</g>
<path d="M267.918 215.757C272.557 220.482 250.075 294.719 250.075 294.719C252.528 296.871 256.145 297.862 259.567 298.314C262.713 298.704 265.892 298.751 269.048 298.454C269.048 298.454 301.27 220.299 292.402 200.905C283.534 181.512 228.507 172.708 228.507 172.708L226.161 166.897L197.695 162.893L192.992 197.752C192.992 197.752 197.663 198.204 204.691 199.108C223.535 201.497 259.395 207.147 267.918 215.757Z" stroke="#263238" stroke-width="1.07622" stroke-linecap="round" stroke-linejoin="round"/>
<path d="M283.847 145.491C288.571 144.684 254.939 115.195 254.939 115.195L238.721 126.108C238.721 126.108 266.315 145.545 270.652 146.072C274.989 146.599 283.847 145.491 283.847 145.491Z" fill="white"/>
<mask id="mask5_1126_4827" style="mask-type:luminance" maskUnits="userSpaceOnUse" x="238" y="115" width="47" height="32">
<path d="M283.847 145.491C288.571 144.684 254.939 115.195 254.939 115.195L238.721 126.108C238.721 126.108 266.315 145.545 270.652 146.072C274.989 146.599 283.847 145.491 283.847 145.491Z" fill="white"/>
</mask>
<g mask="url(#mask5_1126_4827)">
<path opacity="0.2" d="M283.847 145.491C288.571 144.684 254.939 115.195 254.939 115.195L238.721 126.108C238.721 126.108 266.315 145.545 270.652 146.072C274.989 146.599 283.847 145.491 283.847 145.491Z" fill="black" fill-opacity="0.7"/>
</g>
<path d="M283.847 145.491C288.571 144.684 254.939 115.195 254.939 115.195L238.721 126.108C238.721 126.108 266.315 145.545 270.652 146.072C274.989 146.599 283.847 145.491 283.847 145.491Z" stroke="#263238" stroke-width="1.07622" stroke-linecap="round" stroke-linejoin="round"/>
<path d="M277.938 133.093C277.938 133.093 270.889 134.847 268.726 136.321C266.563 137.796 267.187 143.123 267.187 143.123C267.187 143.123 276.582 140.476 277.938 133.093Z" fill="white" stroke="#263238" stroke-width="1.07622" stroke-linecap="round" stroke-linejoin="round"/>
<path d="M282.437 119.586L269.328 144.727H267.778L280.23 118.348L282.437 119.586Z" fill="#263238"/>
<path d="M270.62 137.764C270.62 137.764 278.885 131.887 280.908 131.887C282.932 131.887 288.991 139.044 288.991 142.65C288.991 146.255 275.775 148.224 273.192 145.179C271.9 143.661 274.462 140.002 274.462 140.002C272.923 141.639 271.273 143.168 269.522 144.576C268.446 145.179 266.39 144.393 266.39 144.393C266.39 144.393 269.145 139.981 270.62 137.764Z" fill="white" stroke="#263238" stroke-width="1.07622" stroke-linecap="round" stroke-linejoin="round"/>
<path d="M274.462 146.007C276.368 143.587 278.707 141.544 281.361 139.98" stroke="#263238" stroke-width="1.07622" stroke-linecap="round" stroke-linejoin="round"/>
<path d="M274.462 139.981C274.462 139.981 277.325 137.484 279.251 136.935" stroke="#263238" stroke-width="1.07622" stroke-linecap="round" stroke-linejoin="round"/>
<path d="M283.47 143.156C281.469 144.181 279.538 145.339 277.691 146.621" stroke="#263238" stroke-width="1.07622" stroke-linecap="round" stroke-linejoin="round"/>
<path d="M244.403 102.302C248.633 105.251 267.628 124.784 267.628 124.784C267.628 124.784 258.728 134.911 250.925 136.375L229.777 126.108L244.403 102.302Z" fill="white" stroke="#263238" stroke-width="1.07622" stroke-linecap="round" stroke-linejoin="round"/>
<path opacity="0.4" d="M244.403 102.302C248.633 105.251 267.628 124.784 267.628 124.784C267.628 124.784 258.728 134.911 250.925 136.375L229.777 126.108L244.403 102.302Z" fill="#4E73D3" stroke="#263238" stroke-width="1.07622" stroke-linecap="round" stroke-linejoin="round"/>
<path d="M220.371 165.95C211.256 152.949 169.348 168.597 169.348 168.597C169.348 168.597 165.355 199.893 182.047 208.245C198.739 216.596 222.803 216.144 229.304 222.914L255.757 301.026C255.757 301.026 265.26 304.997 279.079 298.744C279.079 298.744 262.279 239.757 257.35 218.813C252.475 198.085 220.909 184.019 220.909 184.019C222.536 182.098 223.769 179.874 224.536 177.476" fill="#263238"/>
<path d="M220.371 165.95C211.256 152.949 169.348 168.597 169.348 168.597C169.348 168.597 165.355 199.893 182.047 208.245C198.739 216.596 222.803 216.144 229.304 222.914L255.757 301.026C255.757 301.026 265.26 304.997 279.079 298.744C279.079 298.744 262.279 239.757 257.35 218.813C252.475 198.085 220.909 184.019 220.909 184.019C222.536 182.098 223.769 179.874 224.536 177.476" stroke="#263238" stroke-width="1.07622" stroke-linecap="round" stroke-linejoin="round"/>
<path d="M177.947 195.869C179.284 197.054 180.689 198.161 182.155 199.183" stroke="#161B1E" stroke-width="1.07622" stroke-linecap="round" stroke-linejoin="round"/>
<path d="M174.514 169.361C171.091 176.787 170.822 186.215 175.59 193.092" stroke="#161B1E" stroke-width="1.07622" stroke-linecap="round" stroke-linejoin="round"/>
<path d="M184.059 170.556C184.059 170.556 184.931 176.281 182.381 178.552C179.83 180.823 172.006 181.975 172.006 181.975" stroke="#161B1E" stroke-width="1.07622" stroke-linecap="round" stroke-linejoin="round"/>
<path d="M218.413 170.814C218.413 170.814 218.057 176.518 220.371 176.249C222.685 175.98 222.803 178.53 222.803 178.53" stroke="#161B1E" stroke-width="1.07622" stroke-linecap="round" stroke-linejoin="round"/>
<path d="M243.843 106.693C244.196 105.255 244.384 103.782 244.403 102.302C244.403 102.302 231.488 91.4108 214.861 91.4754C195.058 91.54 182.951 97.7713 178.108 106.424C170.424 120.114 169.348 168.597 169.348 168.597C169.348 168.597 219.037 176.26 226.161 166.864C227.399 165.229 226.452 153.681 226.452 153.681C226.452 153.681 232.016 139.087 233.189 127.765C234.824 125.512 236.343 123.177 237.741 120.77C239.511 117.807 241.044 114.708 242.326 111.504" fill="white"/>
<path d="M243.843 106.693C244.196 105.255 244.384 103.782 244.403 102.302C244.403 102.302 231.488 91.4108 214.861 91.4754C195.058 91.54 182.951 97.7713 178.108 106.424C170.424 120.114 169.348 168.597 169.348 168.597C169.348 168.597 219.037 176.26 226.161 166.864C227.399 165.229 226.452 153.681 226.452 153.681C226.452 153.681 232.016 139.087 233.189 127.765C234.824 125.512 236.343 123.177 237.741 120.77C239.511 117.807 241.044 114.708 242.326 111.504" stroke="#263238" stroke-width="1.07622" stroke-linecap="round" stroke-linejoin="round"/>
<g opacity="0.6">
<path d="M243.843 106.693C244.196 105.255 244.384 103.782 244.403 102.302C244.403 102.302 231.488 91.4108 214.861 91.4754C195.058 91.54 182.951 97.7713 178.108 106.424C170.424 120.114 169.348 168.597 169.348 168.597C169.348 168.597 219.037 176.26 226.161 166.864C227.399 165.229 226.452 153.681 226.452 153.681C226.452 153.681 232.016 139.087 233.189 127.765C234.824 125.512 236.343 123.177 237.741 120.77C239.511 117.807 241.044 114.708 242.326 111.504" fill="#4E73D3"/>
<path d="M243.843 106.693C244.196 105.255 244.384 103.782 244.403 102.302C244.403 102.302 231.488 91.4108 214.861 91.4754C195.058 91.54 182.951 97.7713 178.108 106.424C170.424 120.114 169.348 168.597 169.348 168.597C169.348 168.597 219.037 176.26 226.161 166.864C227.399 165.229 226.452 153.681 226.452 153.681C226.452 153.681 232.016 139.087 233.189 127.765C234.824 125.512 236.343 123.177 237.741 120.77C239.511 117.807 241.044 114.708 242.326 111.504" stroke="#263238" stroke-width="1.07622" stroke-linecap="round" stroke-linejoin="round"/>
</g>
<path d="M224.816 118.348C224.816 118.348 217.229 147.783 218.359 154.262C218.629 156.497 218.255 158.764 217.283 160.794C218.274 161.837 218.912 163.166 219.105 164.592C219.298 166.017 219.037 167.468 218.359 168.737" stroke="#263238" stroke-width="1.07622" stroke-linecap="round" stroke-linejoin="round"/>
<path d="M204.691 142.703C206.046 142.652 207.362 142.235 208.5 141.498L210.75 131.64C206.287 132.046 201.788 131.729 197.426 130.703L195.015 141.466C196.371 141.843 197.747 142.142 199.137 142.359" stroke="#263238" stroke-width="1.07622" stroke-linecap="round" stroke-linejoin="round"/>
<path d="M230.208 122.18C230.208 122.18 236.665 94.6717 220.371 91.4753C204.077 88.2789 200.73 95.8878 201.688 101.043C202.969 107.92 216.475 124.784 216.475 124.784L224.816 118.327L230.208 122.18Z" fill="white" stroke="#263238" stroke-width="1.07622" stroke-linecap="round" stroke-linejoin="round"/>
<path opacity="0.4" d="M230.208 122.18C230.208 122.18 236.665 94.6717 220.371 91.4753C204.077 88.2789 200.73 95.8878 201.688 101.043C202.969 107.92 216.475 124.784 216.475 124.784L224.816 118.327L230.208 122.18Z" fill="white" stroke="#263238" stroke-width="1.07622" stroke-linecap="round" stroke-linejoin="round"/>
<path d="M251.582 207.148C251.582 207.148 241.056 194.997 217.293 185.817C217.293 185.817 223.449 183.933 224.827 181.372" stroke="#161B1E" stroke-width="1.07622" stroke-linecap="round" stroke-linejoin="round"/>
<path d="M189.613 143.65C189.613 143.65 185.308 150.915 167.583 150.247C170.881 146.715 175.054 144.117 179.679 142.714C186.922 140.777 189.613 143.65 189.613 143.65Z" fill="white" stroke="#263238" stroke-width="1.07622" stroke-linecap="round" stroke-linejoin="round"/>
<path d="M258.383 146.567C258.383 146.567 254.272 140.196 250.505 138.915C246.739 137.634 235.675 137.527 233.964 137.484C232.253 137.44 201.849 145.168 187.579 149.925L188.827 126.108L169.649 127.625C169.649 127.625 170.424 156.683 173.405 164.378C176.386 172.073 180.659 170.201 187.945 167.058C216.604 154.714 233.393 146.115 234.954 146.61C236.514 147.105 258.383 146.567 258.383 146.567Z" fill="white" stroke="#263238" stroke-width="1.07622" stroke-linecap="round" stroke-linejoin="round"/>
<path d="M193.616 112.268C194.117 114.242 194.278 116.288 194.09 118.316C193.24 125.764 189.613 143.65 189.613 143.65C189.613 143.65 171.737 146.201 167.583 150.248C167.583 150.248 164.634 126.571 170.639 114.549C176.644 102.528 182.854 101.204 182.854 101.204C186.782 100.236 190.388 103.895 192.379 108.598" fill="white"/>
<path d="M193.616 112.268C194.117 114.242 194.278 116.288 194.09 118.316C193.24 125.764 189.613 143.65 189.613 143.65C189.613 143.65 171.737 146.201 167.583 150.248C167.583 150.248 164.634 126.571 170.639 114.549C176.644 102.528 182.854 101.204 182.854 101.204C186.782 100.236 190.388 103.895 192.379 108.598" stroke="#263238" stroke-width="1.07622" stroke-linecap="round" stroke-linejoin="round"/>
<g opacity="0.4">
<path d="M193.616 112.268C194.117 114.242 194.278 116.288 194.09 118.316C193.24 125.764 189.613 143.65 189.613 143.65C189.613 143.65 171.737 146.201 167.583 150.248C167.583 150.248 164.634 126.571 170.639 114.549C176.644 102.528 182.854 101.204 182.854 101.204C186.782 100.236 190.388 103.895 192.379 108.598" fill="#4E73D3"/>
<path d="M193.616 112.268C194.117 114.242 194.278 116.288 194.09 118.316C193.24 125.764 189.613 143.65 189.613 143.65C189.613 143.65 171.737 146.201 167.583 150.248C167.583 150.248 164.634 126.571 170.639 114.549C176.644 102.528 182.854 101.204 182.854 101.204C186.782 100.236 190.388 103.895 192.379 108.598" stroke="#263238" stroke-width="1.07622" stroke-linecap="round" stroke-linejoin="round"/>
</g>
<path d="M246.136 121.48C243.46 123.67 240.338 125.249 236.988 126.108" stroke="#263238" stroke-width="1.07622" stroke-linecap="round" stroke-linejoin="round"/>
<path d="M189.613 121.48C189.613 121.48 183.155 133.685 174.998 136.375" stroke="#263238" stroke-width="1.07622" stroke-linecap="round" stroke-linejoin="round"/>
<path d="M231.456 215.488C231.456 215.488 230.262 216.392 229.777 219.653" stroke="#161B1E" stroke-width="1.07622" stroke-linecap="round" stroke-linejoin="round"/>
<path d="M235.88 219.653C234.84 219.766 233.835 220.094 232.929 220.616C232.023 221.139 231.235 221.844 230.617 222.688" stroke="#161B1E" stroke-width="1.07622" stroke-linecap="round" stroke-linejoin="round"/>
<path d="M271.481 207.147C271.481 207.147 268.037 208.891 268.78 213.831" stroke="#161B1E" stroke-width="1.07622" stroke-linecap="round" stroke-linejoin="round"/>
<path d="M275.108 211.345C275.108 211.345 270.405 214.132 270.071 216.629" stroke="#161B1E" stroke-width="1.07622" stroke-linecap="round" stroke-linejoin="round"/>
<path d="M220.597 181.232C220.597 181.232 210.126 182.696 207.779 181.232" stroke="#161B1E" stroke-width="1.07622" stroke-linecap="round" stroke-linejoin="round"/>
<path d="M224.816 117.165C225.72 114.602 226.086 111.88 225.892 109.168C225.849 108.249 225.752 107.332 225.602 106.424L227.42 103.54L229.756 99.8269L227.055 89.0647C227.055 89.0647 209.835 92.3795 208.544 97.1794C207.252 101.979 224.816 117.165 224.816 117.165Z" fill="white"/>
<mask id="mask6_1126_4827" style="mask-type:luminance" maskUnits="userSpaceOnUse" x="208" y="89" width="22" height="29">
<path d="M224.816 117.165C225.72 114.602 226.086 111.88 225.892 109.168C225.849 108.249 225.752 107.332 225.602 106.424L227.42 103.54L229.756 99.8269L227.055 89.0647C227.055 89.0647 209.835 92.3795 208.544 97.1794C207.252 101.979 224.816 117.165 224.816 117.165Z" fill="white"/>
</mask>
<g mask="url(#mask6_1126_4827)">
<path opacity="0.2" d="M225.914 109.212C225.871 108.292 225.774 107.376 225.623 106.467L227.442 103.583C224.164 103.076 221.179 101.402 219.037 98.8694C218.946 101.098 219.563 103.299 220.798 105.156C222.033 107.013 223.823 108.433 225.914 109.212Z" fill="black" fill-opacity="0.7"/>
</g>
<path d="M224.816 117.165C225.72 114.602 226.086 111.88 225.892 109.168C225.849 108.249 225.752 107.332 225.602 106.424L227.42 103.54L229.756 99.8269L227.055 89.0647C227.055 89.0647 209.835 92.3795 208.544 97.1794C207.252 101.979 224.816 117.165 224.816 117.165Z" stroke="#263238" stroke-width="1.07622" stroke-linecap="round" stroke-linejoin="round"/>
<path d="M214.011 89.9684C208.63 75.9776 212.203 52.1609 238.032 56.724C253.185 59.4146 255.015 77.7318 249.957 85.868C244.898 94.0042 250.269 94.2625 242.66 100.289C239.571 102.732 237.085 106.876 233.404 107.145C229.024 107.446 223.417 103.303 219.23 98.8257" fill="white"/>
<path d="M214.011 89.9684C208.63 75.9776 212.203 52.1609 238.032 56.724C253.185 59.4146 255.015 77.7318 249.957 85.868C244.898 94.0042 250.269 94.2625 242.66 100.289C239.571 102.732 237.085 106.876 233.404 107.145C229.024 107.446 223.417 103.303 219.23 98.8257" stroke="#263238" stroke-width="1.07622" stroke-linecap="round" stroke-linejoin="round"/>
<path d="M239.463 85.8684C239.463 85.8684 235.654 82.403 231.123 83.8343" stroke="#263238" stroke-width="1.07622" stroke-linecap="round" stroke-linejoin="round"/>
<path d="M246.599 85.8682C247.11 84.9694 247.821 84.2007 248.678 83.622C249.535 83.0433 250.514 82.6703 251.538 82.532" stroke="#263238" stroke-width="1.07622" stroke-linecap="round" stroke-linejoin="round"/>
<path d="M244.08 90.9158C244.08 90.9158 244.629 93.7032 245.35 96.5229C246.071 99.3426 240.83 97.8036 241.045 97.3731" fill="white"/>
<path d="M244.08 90.9158C244.08 90.9158 244.629 93.7032 245.35 96.5229C246.071 99.3426 240.83 97.8036 241.045 97.3731" stroke="#263238" stroke-width="1.07622" stroke-linecap="round" stroke-linejoin="round"/>
<path d="M238.344 100.893C236.122 100.256 234.144 98.9619 232.672 97.1797" stroke="#263238" stroke-width="1.07622" stroke-linecap="round" stroke-linejoin="round"/>
<path d="M234.158 89.4088C234.081 89.5444 234.032 89.6938 234.013 89.8484C233.995 90.003 234.007 90.1598 234.049 90.3097C234.091 90.4597 234.162 90.5999 234.258 90.7223C234.354 90.8447 234.474 90.9469 234.61 91.0231C234.885 91.1739 235.21 91.2099 235.512 91.1232C235.814 91.0366 236.07 90.8344 236.224 90.5603C236.322 90.3942 236.374 90.2046 236.375 90.0115C236.451 89.8758 236.5 89.7264 236.519 89.5718C236.537 89.4172 236.525 89.2605 236.483 89.1105C236.441 88.9605 236.37 88.8203 236.274 88.6979C236.178 88.5755 236.058 88.4733 235.923 88.3971C235.647 88.2463 235.323 88.2104 235.02 88.297C234.718 88.3836 234.462 88.5859 234.308 88.8599C234.21 89.026 234.158 89.2156 234.158 89.4088Z" fill="#263238"/>
<path d="M245.652 89.1725C245.436 89.9473 245.587 90.6792 245.996 90.7868C246.405 90.8944 246.911 90.3563 247.072 89.5706C247.234 88.785 247.126 88.0639 246.717 87.9563C246.308 87.8487 245.888 88.3868 245.652 89.1725Z" fill="#263238"/>
<path d="M229.939 71.4575C229.939 71.4575 233.942 81.9291 243.844 81.6923C243.844 81.6923 240.41 79.0771 239.463 76.5803C239.463 76.5803 247.083 84.1138 254.692 80.2825C262.301 76.4511 258.566 58.629 246.889 51.5905C235.212 44.552 223.266 46.4354 219.22 53.1618C219.22 53.1618 211.04 52.4084 207.435 64.4298C204.206 75.192 209.372 91.5074 214.42 91.6904C222.244 91.981 223.815 83.4896 223.815 83.4896C227.045 80.2043 229.184 76.0026 229.939 71.4575Z" fill="#263238" stroke="#263238" stroke-width="1.07622" stroke-linecap="round" stroke-linejoin="round"/>
<path d="M221.361 90.0224C221.361 90.0224 221.609 80.1427 215.98 81.3373C210.352 82.5319 214.431 93.9506 218.66 93.8322" fill="white"/>
<path d="M221.361 90.0224C221.361 90.0224 221.609 80.1427 215.98 81.3373C210.352 82.5319 214.431 93.9506 218.66 93.8322" stroke="#263238" stroke-width="1.07622" stroke-linecap="round" stroke-linejoin="round"/>
<path d="M238.742 145.491H325.518C326.486 145.491 327.272 146.276 327.272 147.245V150.269C327.272 151.238 326.486 152.024 325.518 152.024H238.742C237.773 152.024 236.988 151.238 236.988 150.269V147.245C236.988 146.276 237.773 145.491 238.742 145.491Z" fill="white" stroke="#263238" stroke-width="1.07622" stroke-linecap="round" stroke-linejoin="round"/>
</svg>
