<svg width="80" height="80" viewBox="0 0 80 80" fill="none" xmlns="http://www.w3.org/2000/svg">
<path d="M77.7125 10.9368C76.5356 9.75793 74.6261 9.7559 73.4492 10.9318L37.2784 47.0072L24.2281 32.8332C23.1005 31.6092 21.1939 31.5298 19.9678 32.6573C18.7427 33.785 18.6642 35.6925 19.7919 36.9176L34.9678 53.399C35.2427 53.6979 35.5753 53.938 35.9454 54.105C36.3155 54.272 36.7156 54.3625 37.1216 54.3709C37.1436 54.3718 37.1648 54.3718 37.1859 54.3718C37.9838 54.3716 38.7491 54.0554 39.3145 53.4925L77.7066 15.2011C78.8864 14.0253 78.8884 12.1157 77.7125 10.9368Z" fill="#4E73D3"/>
<path d="M76.9848 36.9848C75.3195 36.9848 73.9698 38.3345 73.9698 40C73.9698 58.7317 58.7317 73.9698 40 73.9698C21.2694 73.9698 6.03016 58.7317 6.03016 40C6.03016 21.2694 21.2694 6.03016 40 6.03016C41.6653 6.03016 43.0152 4.68047 43.0152 3.01516C43.0152 1.34969 41.6653 0 40 0C17.9437 0 0 17.9437 0 40C0 62.0553 17.9437 80 40 80C62.0553 80 80 62.0553 80 40C80 38.3347 78.6503 36.9848 76.9848 36.9848Z" fill="#4E73D3"/>
</svg>
