<svg width="347" height="454" viewBox="0 0 347 454" fill="none" xmlns="http://www.w3.org/2000/svg">
<path d="M347 263.36C347 263.36 347 263.1 346.938 262.592C346.875 262.083 346.854 261.326 346.792 260.351C346.792 259.852 346.73 259.313 346.699 258.69C346.667 258.068 346.501 257.424 346.397 256.708C346.293 255.992 346.168 255.224 346.033 254.405C345.874 253.533 345.669 252.671 345.42 251.821C344.309 247.389 342.536 243.149 340.16 239.244C337.037 234.046 332.94 229.497 328.091 225.848L326.012 224.333C325.295 223.856 324.536 223.43 323.788 222.974C323.039 222.517 322.301 222.009 321.48 221.635L319.027 220.463L317.779 219.871L316.469 219.394L313.808 218.429C312.914 218.128 311.968 217.941 311.033 217.682C310.092 217.415 309.138 217.2 308.174 217.038C306.2 216.672 304.203 216.443 302.197 216.353C301.157 216.353 300.118 216.219 299.078 216.229L295.96 216.395C295.44 216.395 294.92 216.395 294.38 216.488L292.81 216.737C291.77 216.914 290.731 217.028 289.629 217.246C287.495 217.728 285.395 218.345 283.34 219.093L281.77 219.664C281.51 219.767 281.24 219.85 280.98 219.965L280.232 220.328L277.175 221.791C276.136 222.33 275.221 222.963 274.234 223.544C273.755 223.856 273.194 224.115 272.778 224.468L271.385 225.506C269.503 226.902 267.715 228.421 266.032 230.051L263.631 232.686L263.028 233.35L262.487 234.066L261.448 235.509L260.408 236.962L259.452 238.508L258.506 240.075L258.028 240.853C257.882 241.123 257.757 241.403 257.622 241.683C257.092 242.783 256.583 243.893 256.021 245.003L254.743 248.49C251.496 258.138 251.496 268.581 254.743 278.23L256.021 281.716C256.551 282.826 257.061 283.937 257.622 285.037L258.028 285.867L258.506 286.645L259.452 288.212L260.398 289.758L261.437 291.211L262.477 292.653L263.017 293.369L263.62 294.033L266.021 296.669C267.702 298.301 269.491 299.82 271.375 301.214L272.768 302.252C273.225 302.604 273.745 302.864 274.223 303.175C275.211 303.756 276.167 304.389 277.165 304.929L280.221 306.402L280.97 306.765L281.76 307.056L283.329 307.627C285.381 308.384 287.483 309.001 289.619 309.474C290.658 309.692 291.75 309.816 292.799 309.993L294.38 310.231C294.899 310.304 295.419 310.294 295.949 310.335L299.068 310.491C300.107 310.491 301.147 310.408 302.186 310.377C304.192 310.284 306.19 310.051 308.164 309.681C309.13 309.531 310.085 309.316 311.022 309.038C311.958 308.789 312.904 308.592 313.808 308.291L316.469 307.326L317.779 306.848L319.027 306.257L321.48 305.084C322.291 304.711 323.018 304.182 323.777 303.756C324.536 303.331 325.284 302.864 326.002 302.397L328.081 300.871C332.913 297.22 336.994 292.672 340.098 287.475C342.476 283.575 344.249 279.339 345.358 274.909C345.565 273.986 345.877 273.145 345.971 272.325C346.064 271.505 346.22 270.727 346.335 270.011C346.449 269.295 346.574 268.642 346.636 268.029C346.699 267.417 346.699 266.877 346.73 266.379C346.792 265.404 346.844 264.657 346.875 264.128C346.906 263.598 346.938 263.36 346.938 263.36C346.938 263.36 346.938 263.619 346.938 264.128L346.854 266.39C346.854 266.877 346.803 267.427 346.782 268.05C346.761 268.673 346.605 269.316 346.511 270.032C346.418 270.748 346.283 271.526 346.168 272.356C346.013 273.231 345.811 274.097 345.565 274.951C344.499 279.42 342.746 283.697 340.368 287.631C337.272 292.883 333.179 297.483 328.32 301.172L326.241 302.719C325.524 303.196 324.765 303.632 324.006 304.099C323.247 304.566 322.509 305.064 321.688 305.448L319.214 306.641L317.956 307.232L316.636 307.72L313.954 308.706C313.049 309.007 312.093 309.204 311.147 309.463C310.202 309.743 309.24 309.965 308.268 310.127C306.276 310.501 304.262 310.737 302.238 310.833C301.199 310.833 300.159 310.978 299.12 310.968L296.001 310.812C295.471 310.812 294.962 310.812 294.411 310.709L292.82 310.47C291.781 310.294 290.668 310.169 289.608 309.951C287.446 309.471 285.317 308.85 283.236 308.094L281.656 307.523C281.386 307.419 281.126 307.336 280.866 307.222L280.097 306.859L276.978 305.375C275.938 304.835 275.003 304.202 274.005 303.611C273.516 303.3 272.965 303.03 272.529 302.677L271.125 301.639C269.217 300.232 267.405 298.7 265.699 297.053L263.277 294.386L262.664 293.712L262.113 292.996L261.021 291.532L259.919 290.069L258.953 288.503L257.996 286.925L257.518 286.126L257.102 285.296C256.576 284.175 256.035 283.055 255.481 281.934C255.054 280.761 254.618 279.589 254.181 278.406C250.899 268.643 250.899 258.077 254.181 248.314C254.618 247.131 255.044 245.958 255.481 244.786C255.917 243.613 256.52 242.534 257.102 241.423C257.237 241.143 257.362 240.863 257.508 240.593L257.986 239.794L258.953 238.217L259.909 236.65L261.011 235.187L262.102 233.724L262.653 233.008L263.267 232.334L265.689 229.667C267.396 228.023 269.209 226.49 271.115 225.08L272.518 224.043C272.986 223.69 273.506 223.43 273.995 223.119C275.034 222.528 275.959 221.895 276.968 221.345L280.086 219.871L280.855 219.498L281.645 219.207L283.225 218.626C285.307 217.869 287.436 217.249 289.598 216.769C290.637 216.551 291.739 216.436 292.799 216.26L294.4 216.021C294.92 215.949 295.44 215.949 295.991 215.918L299.109 215.762C300.149 215.762 301.188 215.845 302.228 215.886C304.252 215.987 306.266 216.226 308.257 216.602C309.229 216.763 310.191 216.981 311.137 217.256C312.083 217.516 313.029 217.713 313.943 218.014L316.625 218.999L317.945 219.487L319.203 220.089L321.677 221.282C322.499 221.656 323.226 222.185 323.995 222.631C324.765 223.078 325.513 223.534 326.23 224.011L328.309 225.547C333.159 229.227 337.25 233.807 340.357 239.037C342.734 242.971 344.487 247.249 345.555 251.717C345.801 252.571 346.002 253.437 346.158 254.311C346.272 255.141 346.387 255.92 346.501 256.636C346.615 257.352 346.719 258.016 346.771 258.628C346.823 259.24 346.823 259.79 346.844 260.288C346.844 261.264 346.906 262.021 346.927 262.54C346.948 263.059 347 263.36 347 263.36Z" fill="#E0E0E0"/>
<path d="M320.316 198.703C334.519 198.703 346.034 187.209 346.034 173.031C346.034 158.853 334.519 147.359 320.316 147.359C306.112 147.359 294.598 158.853 294.598 173.031C294.598 187.209 306.112 198.703 320.316 198.703Z" fill="#EBEBEB" fill-opacity="0.15"/>
<path d="M285.159 446.975V449.652H287.134H326.449V446.975H285.159Z" fill="#EBEBEB"/>
<path d="M325.409 449.922C325.409 450.026 316.802 450.12 306.198 450.12C295.595 450.12 286.999 450.026 286.999 449.922C286.999 449.818 295.595 449.725 306.198 449.725C316.802 449.725 325.409 449.808 325.409 449.922Z" fill="#F5F5F5"/>
<path d="M144.148 295.901C217.858 295.901 277.612 236.254 277.612 162.675C277.612 89.0961 217.858 29.4487 144.148 29.4487C70.4379 29.4487 10.6841 89.0961 10.6841 162.675C10.6841 236.254 70.4379 295.901 144.148 295.901Z" fill="#EBEBEB" fill-opacity="0.15"/>
<path d="M138.213 164.387C140.842 164.387 142.974 162.259 142.974 159.634C142.974 157.01 140.842 154.882 138.213 154.882C135.583 154.882 133.452 157.01 133.452 159.634C133.452 162.259 135.583 164.387 138.213 164.387Z" fill="white"/>
<path d="M270.918 94.8113C270.991 94.9461 241.416 109.432 204.888 127.176C168.359 144.92 138.681 159.188 138.618 159.064C138.556 158.939 168.109 144.433 204.649 126.688C241.188 108.944 270.918 94.6764 270.918 94.8113Z" fill="white"/>
<path d="M268.579 89.1041C268.579 89.1041 268.277 88.6683 267.726 87.807C267.175 86.9457 266.354 85.6487 265.273 83.9676C264.732 83.1167 264.15 82.1621 263.475 81.1348L261.084 77.8558L258.308 74.0268C257.269 72.7089 256.104 71.3392 254.888 69.8761C252.56 66.8669 249.566 63.868 246.416 60.5371C243.069 57.3411 239.482 53.8026 235.231 50.4613C225.753 42.6931 215.318 36.1685 204.18 31.0466C202.621 30.3513 201.062 29.5627 199.471 28.9712L194.544 27.0827C191.249 25.7026 187.725 24.7791 184.149 23.6376C182.392 23.0358 180.552 22.6726 178.712 22.216L173.203 20.8982L167.413 19.8605C165.479 19.5388 163.535 19.1549 161.539 19.0096L155.531 18.4182L154.003 18.2625L152.475 18.2106L149.356 18.1069C147.277 18.1069 145.198 17.9097 143.119 17.9616L136.778 18.1276C128.021 18.6016 119.324 19.8552 110.79 21.8736C92.4336 26.2451 75.1233 34.1936 59.8534 45.2626C43.4251 57.1164 29.7146 72.3271 19.6343 89.8823C9.48719 107.401 3.20357 126.879 1.20363 147.016C-2.44942 183.027 7.69383 219.082 29.5929 247.93C34.2426 254.083 39.3955 259.841 44.9986 265.144C47.639 267.749 50.4353 270.073 53.1381 272.408L57.2962 275.666C58.6475 276.756 60.0925 277.69 61.4542 278.696L63.5333 280.17C64.2194 280.637 64.9366 281.073 65.6123 281.529L69.7704 284.175C72.5979 285.753 75.2695 287.434 78.0242 288.772C79.3963 289.467 80.7269 290.173 82.0679 290.847L86.0701 292.653L88.0244 293.545L89.9891 294.324L93.8249 295.839C102.476 299.117 111.437 301.512 120.572 302.988C122.443 303.372 124.241 303.528 125.904 303.766C127.568 304.005 129.137 304.233 130.603 304.306L134.647 304.628C135.884 304.731 136.996 304.825 138.005 304.835L142.558 304.97L144.117 305.043H142.558L137.994 304.949C136.955 304.949 135.915 304.866 134.636 304.773L130.593 304.482C129.127 304.41 127.568 304.14 125.884 303.953C124.2 303.766 122.412 303.58 120.541 303.206C111.384 301.763 102.398 299.395 93.7209 296.14L89.8747 294.625L87.962 293.805L85.9973 292.923L81.9847 291.117C80.6438 290.464 79.3028 289.758 77.9306 289.042C75.1655 287.714 72.4732 286.033 69.6145 284.455L65.4564 281.809C64.7599 281.353 64.0426 280.927 63.3773 280.45L61.2983 278.977C59.9261 277.939 58.4708 277.036 57.1402 275.947L52.9821 272.678C50.269 270.374 47.4519 268.05 44.8011 265.414C39.159 260.096 33.9679 254.321 29.2811 248.147C7.28056 219.221 -2.92292 183.048 0.725464 146.913C2.72736 126.699 9.03243 107.145 19.2185 89.5607C24.352 80.6438 30.4186 72.2957 37.3166 64.6566C56.8577 43.1716 82.434 28.0665 110.707 21.3132C119.283 19.3107 128.023 18.0847 136.819 17.6503L143.181 17.4946C145.26 17.4946 147.339 17.6088 149.418 17.6503L152.537 17.754L154.075 17.8059L155.604 17.9616L161.643 18.5738C163.639 18.7295 165.593 19.103 167.537 19.4351L173.317 20.4209L178.91 21.7594C180.75 22.2264 182.6 22.5896 184.357 23.2018C187.901 24.3432 191.436 25.2771 194.752 26.6676L199.69 28.5665C201.322 29.2099 202.808 29.9985 204.409 30.6419C215.563 35.7838 226.012 42.3293 235.501 50.1189C239.753 53.481 243.329 57.0401 246.676 60.2465C249.794 63.6501 252.799 66.6697 255.127 69.6893C256.333 71.1628 257.487 72.5429 258.537 73.84L261.292 77.6794L263.651 80.9791C264.327 82.0168 264.909 82.9715 265.439 83.8224C266.479 85.5138 267.3 86.8108 267.841 87.6929L268.579 89.1041Z" fill="white"/>
<path d="M313.621 28.3384C313.595 28.1873 313.578 28.0348 313.569 27.8818C313.569 27.5566 313.538 27.1104 313.475 26.5432C313.475 26.2526 313.475 25.9206 313.413 25.5678C313.351 25.215 313.299 24.8207 313.236 24.3952C313.103 23.4148 312.905 22.4442 312.644 21.4897C311.984 18.8678 310.932 16.3597 309.525 14.0497C307.483 10.6512 304.741 7.72387 301.482 5.46113C298.222 3.19839 294.519 1.65168 290.616 0.923169C285.702 0.0196729 280.635 0.442379 275.938 2.14762C274.692 2.60009 273.476 3.13391 272.3 3.74563C271.708 4.0673 271.146 4.44087 270.564 4.7833C269.961 5.12828 269.385 5.51671 268.838 5.94548C267.743 6.77402 266.701 7.67171 265.72 8.63304C264.74 9.64882 263.827 10.7268 262.986 11.8602C261.253 14.1903 259.905 16.7828 258.994 19.5389C258.075 22.3833 257.592 25.3499 257.56 28.3384C257.587 31.3238 258.071 34.2876 258.994 37.1274C259.901 39.8854 261.249 42.4785 262.986 44.8061C263.824 45.945 264.737 47.0266 265.72 48.0437C266.699 49.0075 267.74 49.9053 268.838 50.7312C269.371 51.1583 269.934 51.5467 270.522 51.8934C271.105 52.2358 271.666 52.6094 272.258 52.9311C273.435 53.5428 274.65 54.0766 275.897 54.5291C282.011 56.737 288.704 56.7573 294.832 54.5866C300.959 52.4158 306.142 48.1886 309.494 42.627C310.896 40.3109 311.947 37.8002 312.613 35.1766C312.874 34.2256 313.072 33.2585 313.205 32.2815C313.268 31.8561 313.34 31.4721 313.382 31.1089C313.423 30.7457 313.382 30.4241 313.444 30.0713C313.444 29.5109 313.517 29.0336 313.538 28.743C313.546 28.59 313.564 28.4375 313.59 28.2865C313.601 28.4385 313.601 28.5911 313.59 28.743C313.59 29.0647 313.59 29.5109 313.59 30.0816V31.0674C313.59 31.4306 313.486 31.8249 313.434 32.2504C313.321 33.2378 313.137 34.2157 312.883 35.1766C312.254 37.8365 311.22 40.3842 309.816 42.7308C306.462 48.4081 301.226 52.7364 295.013 54.9667C288.8 57.197 282.001 57.189 275.793 54.9442C274.52 54.4912 273.28 53.9503 272.082 53.3254C271.479 53.0037 270.907 52.6198 270.304 52.2877C269.705 51.9389 269.132 51.547 268.589 51.1152C267.452 50.2743 266.372 49.3592 265.356 48.3757C264.351 47.3463 263.42 46.2471 262.57 45.0863C260.782 42.7283 259.388 40.0965 258.443 37.2934C257.498 34.401 257.004 31.3807 256.978 28.3384C257.01 25.2931 257.504 22.2704 258.443 19.3729C259.375 16.5661 260.755 13.9277 262.529 11.5593C263.383 10.4026 264.314 9.30377 265.314 8.26986C266.33 7.28974 267.41 6.37804 268.547 5.54079C269.092 5.10912 269.665 4.71394 270.263 4.35785C270.866 4.01542 271.437 3.63148 272.04 3.32018C273.238 2.69524 274.478 2.15434 275.751 1.70142C280.526 -0.0239166 285.675 -0.446597 290.668 0.476972C294.621 1.23393 298.367 2.8218 301.658 5.13509C304.948 7.44837 307.708 10.4341 309.754 13.894C311.177 16.233 312.229 18.7777 312.873 21.4379C313.126 22.4024 313.31 23.3838 313.424 24.3745C313.475 24.7999 313.548 25.1942 313.579 25.5574C313.611 25.9206 313.579 26.2423 313.579 26.5432C313.579 27.1139 313.579 27.5809 313.579 27.8818C313.605 28.0327 313.618 28.1853 313.621 28.3384Z" fill="white"/>
<path d="M140.978 170.924C140.978 170.924 141.134 176.548 143.649 175.729C145.874 175.002 145.146 172.045 145.146 172.045C145.146 172.045 142.121 166.514 145.146 165.902C145.562 165.809 147.942 169.534 149.138 171.433C149.571 172.129 149.72 172.965 149.554 173.768L147.776 182.525C147.449 184.147 146.688 185.65 145.572 186.873L143.857 188.751L145.021 193.234L133.296 197.24L132.422 182.359L131.196 173.508C131.258 173.031 131.437 172.576 131.716 172.184C131.995 171.791 132.366 171.473 132.797 171.256L133.836 170.738L133.909 169.544C133.932 169.196 134.048 168.86 134.246 168.571C134.443 168.283 134.715 168.053 135.032 167.905L135.687 167.593L137.319 166.722C137.953 166.379 137.402 158.586 138.088 158.784C138.088 158.784 139.418 158.099 139.761 159.178" fill="#FFBE9D"/>
<path d="M132.994 174.473C132.952 174.278 132.952 174.076 132.994 173.882C133.048 173.652 133.156 173.439 133.307 173.259C133.459 173.079 133.651 172.937 133.868 172.844H133.92V172.574C133.989 171.794 133.989 171.009 133.92 170.229C133.794 171.001 133.732 171.782 133.732 172.564C133.738 172.633 133.738 172.702 133.732 172.771L133.795 172.678C133.548 172.786 133.333 172.957 133.173 173.174C133.012 173.391 132.911 173.645 132.88 173.913C132.807 174.214 132.963 174.473 132.994 174.473Z" fill="#EB996E"/>
<path d="M138.015 166.41C137.621 166.722 137.331 167.145 137.183 167.624C136.876 168.805 136.763 170.029 136.85 171.246C136.897 171.607 136.897 171.974 136.85 172.335C136.764 172.674 136.616 172.994 136.414 173.28C136.073 173.691 135.873 174.2 135.842 174.732C135.858 175.231 135.993 175.718 136.237 176.154C136.033 175.981 135.872 175.764 135.764 175.52C135.656 175.275 135.604 175.01 135.613 174.743C135.609 174.153 135.803 173.58 136.164 173.114C136.337 172.857 136.463 172.573 136.539 172.273C136.577 171.928 136.577 171.58 136.539 171.235C136.444 169.981 136.592 168.719 136.975 167.521C137.318 166.587 138.025 166.358 138.015 166.41Z" fill="#EB996E"/>
<path d="M196.8 421.054L198.182 453.585L215.781 453.191L214.461 420.597L196.8 421.054Z" fill="#95ABE5"/>
<path d="M206.821 452.163C206.966 452.163 206.696 445.035 206.218 436.256C205.74 427.477 205.178 420.369 205.074 420.38C204.971 420.39 205.199 427.508 205.688 436.287C206.176 445.066 206.675 452.174 206.821 452.163Z" fill="#263238"/>
<path d="M198.088 451.344L215.687 450.887L215.781 453.191L198.182 453.585L198.088 451.344Z" fill="#263238"/>
<path d="M215.355 442.772C215.355 442.772 215.22 442.503 214.877 442.087C214.376 441.506 213.827 440.968 213.234 440.479C212.346 439.755 211.359 439.161 210.303 438.715C208.461 437.919 206.412 437.736 204.458 438.192C202.504 438.648 200.748 439.719 199.45 441.247C198.957 441.844 198.551 442.508 198.244 443.219C198.115 443.471 198.034 443.746 198.005 444.028C198.509 443.138 199.086 442.291 199.731 441.496C201.403 439.68 203.728 438.598 206.197 438.487C208.659 438.454 211.058 439.263 212.995 440.78C214.523 441.911 215.282 442.835 215.355 442.772Z" fill="#263238"/>
<g opacity="0.3">
<path d="M214.836 429.874L214.981 433.454L197.34 433.776L197.226 431.078L214.836 429.874Z" fill="black"/>
</g>
<path d="M155.385 423.005L156.248 442.804C156.248 442.804 136.372 450.316 136.175 454L174.689 453.71L174.616 422.808L155.385 423.005Z" fill="#95ABE5"/>
<path d="M167.891 441.154C168.268 441.252 168.595 441.487 168.809 441.813C169.022 442.14 169.106 442.533 169.044 442.918C168.948 443.294 168.711 443.618 168.383 443.825C168.054 444.031 167.658 444.104 167.277 444.028C166.88 443.912 166.54 443.652 166.325 443.298C166.11 442.945 166.034 442.525 166.113 442.119C166.25 441.751 166.52 441.447 166.871 441.268C167.221 441.09 167.626 441.049 168.005 441.154" fill="#E0E0E0"/>
<path d="M174.689 453.709V450.596L137.422 451.997C137.422 451.997 135.697 452.765 135.905 453.979L174.689 453.709Z" fill="#263238"/>
<path d="M155.895 442.928C155.895 443.115 156.851 443.198 157.787 443.8C158.722 444.402 159.232 445.19 159.398 445.118C159.564 445.045 159.283 443.945 158.14 443.24C156.997 442.534 155.853 442.752 155.895 442.928Z" fill="#263238"/>
<path d="M151.84 444.64C151.84 444.827 152.62 445.138 153.275 445.937C153.93 446.736 154.117 447.577 154.314 447.567C154.512 447.556 154.616 446.529 153.784 445.491C152.953 444.454 151.84 444.454 151.84 444.64Z" fill="#263238"/>
<path d="M149.564 449.517C149.74 449.517 150 448.604 149.501 447.577C149.002 446.55 148.119 446.135 148.036 446.301C147.952 446.467 148.514 447.006 148.909 447.857C149.304 448.708 149.377 449.455 149.564 449.517Z" fill="#263238"/>
<path d="M156.206 438.362C156.289 438.539 157.152 438.269 158.223 438.362C159.293 438.456 160.135 438.757 160.229 438.601C160.323 438.445 159.522 437.761 158.254 437.709C156.986 437.657 156.113 438.217 156.206 438.362Z" fill="#263238"/>
<path d="M155.531 434.097C156.166 434.28 156.84 434.28 157.475 434.097C158.175 433.974 158.856 433.761 159.502 433.464C159.888 433.294 160.26 433.093 160.614 432.863C160.83 432.741 161.027 432.587 161.196 432.406C161.328 432.269 161.409 432.091 161.424 431.902C161.439 431.713 161.388 431.524 161.279 431.368C161.184 431.238 161.059 431.131 160.914 431.057C160.77 430.983 160.61 430.944 160.448 430.943C160.201 430.941 159.956 430.976 159.72 431.047C159.306 431.147 158.902 431.286 158.514 431.462C157.861 431.762 157.261 432.165 156.737 432.655C155.843 433.496 155.531 434.201 155.604 434.232C155.676 434.263 156.123 433.703 157.028 433.008C157.556 432.59 158.136 432.241 158.753 431.97C159.114 431.823 159.486 431.705 159.866 431.617C160.281 431.503 160.624 431.503 160.739 431.68C160.853 431.856 160.739 431.783 160.739 431.898C160.61 432.031 160.463 432.147 160.302 432.24C159.971 432.463 159.624 432.661 159.263 432.832C158.662 433.132 158.036 433.378 157.392 433.568C156.761 433.706 156.139 433.882 155.531 434.097Z" fill="#263238"/>
<path d="M155.728 434.367C155.801 434.367 156.175 433.724 156.227 432.5C156.258 431.78 156.163 431.06 155.946 430.372C155.823 429.965 155.656 429.572 155.447 429.2C155.343 428.944 155.172 428.72 154.953 428.551C154.734 428.381 154.474 428.272 154.2 428.235C154.028 428.241 153.861 428.294 153.718 428.389C153.574 428.485 153.461 428.618 153.389 428.774C153.293 429.003 153.23 429.244 153.202 429.49C153.134 429.924 153.134 430.365 153.202 430.798C153.32 431.521 153.613 432.205 154.054 432.79C154.813 433.828 155.614 434.015 155.624 433.942C155.635 433.869 155.021 433.496 154.439 432.531C154.1 431.978 153.884 431.359 153.805 430.715C153.753 430.343 153.753 429.966 153.805 429.594C153.867 429.179 154.013 428.847 154.169 428.889C154.325 428.93 154.689 429.19 154.855 429.522C155.049 429.852 155.212 430.199 155.344 430.559C155.564 431.181 155.694 431.831 155.728 432.489C155.822 433.631 155.624 434.347 155.728 434.367Z" fill="#263238"/>
<g opacity="0.3">
<path d="M174.699 434.679L174.658 439.078H156.082V435.094L174.699 434.679Z" fill="black"/>
</g>
<path d="M172.163 168.662L195.563 168.361L192.954 148.531C192.954 148.531 194.555 148.189 194.659 139.535C194.762 130.881 195.168 116.187 195.168 116.187C190.243 114.066 184.84 113.295 179.517 113.954C174.194 114.612 169.144 116.676 164.887 119.933L163.598 120.919L172.163 168.662Z" fill="#FFBE9D"/>
<path d="M166.352 131.555C166.196 131.493 160.395 129.801 160.583 135.706C160.77 141.61 166.685 140.209 166.685 140.043C166.685 139.877 166.352 131.555 166.352 131.555Z" fill="#FFBE9D"/>
<path d="M194.18 130.32C194.326 130.258 199.607 128.836 199.378 134.751C199.149 140.666 193.276 139.255 193.276 139.089C193.276 138.923 194.18 130.32 194.18 130.32Z" fill="#FFBE9D"/>
<path d="M164.429 130.891C165.313 135.841 165.136 138.445 165.957 141.755C167.257 146.995 169.855 151.011 174.585 153.626C179.315 156.241 185.708 156.2 189.773 152.64C192.59 150.16 194.586 147.369 194.97 143.654C195.355 139.939 195.812 133.34 195.833 129.594C195.885 122.839 196.342 116.384 196.342 116.384L177.007 112.898L166.04 119.477L164.429 130.891Z" fill="#263238"/>
<path d="M184.367 156.625C183.268 156.948 182.116 157.051 180.978 156.926C179.839 156.801 178.737 156.452 177.735 155.899C177.797 155.743 179.221 156.2 181.041 156.386C182.86 156.573 184.346 156.469 184.367 156.625Z" fill="#263238"/>
<path d="M165.364 139.327C164.793 134.243 164.429 128.432 163.628 123.077C163.337 121.075 162.589 118.169 162.797 116.146C162.854 114.103 163.283 112.088 164.065 110.2C164.631 109.046 165.455 108.038 166.474 107.253C167.493 106.469 168.679 105.929 169.941 105.677C171.203 105.424 172.506 105.464 173.749 105.795C174.993 106.126 176.143 106.739 177.111 107.585C177.807 106.508 178.819 105.672 180.009 105.191C181.199 104.709 182.509 104.606 183.76 104.896C185.011 105.185 186.142 105.853 186.998 106.808C187.855 107.763 188.395 108.958 188.546 110.231C189.238 109.569 190.13 109.154 191.084 109.049C192.037 108.945 192.998 109.158 193.818 109.655C194.638 110.151 195.27 110.904 195.618 111.796C195.965 112.689 196.008 113.67 195.739 114.589C196.438 114.702 197.098 114.987 197.658 115.419C198.218 115.851 198.661 116.416 198.946 117.063C199.232 117.71 199.35 118.418 199.291 119.122C199.232 119.827 198.997 120.505 198.608 121.095C197.714 122.465 196.103 123.223 195.115 124.54C194.559 125.308 194.235 126.218 194.182 127.163C194.129 128.109 194.348 129.049 194.814 129.874" fill="#263238"/>
<path d="M192.205 120.971C192.17 121.167 192.096 121.354 191.987 121.521C191.71 122.02 191.326 122.452 190.864 122.787C190.139 123.327 189.253 123.609 188.349 123.586C187.757 123.57 187.174 123.433 186.638 123.183C186.101 122.933 185.622 122.576 185.23 122.133L185.635 122.019C185.496 122.691 185.185 123.316 184.734 123.834C184.282 124.352 183.705 124.745 183.057 124.976C182.342 125.253 181.568 125.348 180.807 125.254C180.045 125.159 179.318 124.879 178.691 124.437C177.56 123.647 176.705 122.521 176.249 121.22L176.716 121.282C176.232 122.001 175.581 122.593 174.82 123.008C174.058 123.424 173.208 123.65 172.34 123.669C171.655 123.684 170.975 123.56 170.34 123.303C169.705 123.046 169.13 122.662 168.65 122.175C168.023 121.544 167.566 120.766 167.319 119.913C167.214 119.609 167.175 119.288 167.205 118.968C167.205 118.968 167.288 119.3 167.496 119.85C167.788 120.643 168.266 121.354 168.889 121.926C169.345 122.359 169.883 122.698 170.473 122.92C171.062 123.143 171.69 123.246 172.319 123.223C173.107 123.188 173.876 122.968 174.562 122.58C175.249 122.193 175.834 121.648 176.269 120.992L176.56 120.556L176.737 121.044C177.166 122.235 177.959 123.262 179.003 123.98C179.552 124.38 180.192 124.637 180.866 124.727C181.539 124.818 182.225 124.74 182.86 124.499C183.431 124.301 183.943 123.962 184.348 123.514C184.753 123.066 185.039 122.523 185.178 121.936L185.261 121.448L185.584 121.832C185.929 122.234 186.352 122.562 186.827 122.797C187.302 123.032 187.819 123.17 188.349 123.202C189.177 123.245 189.998 123.019 190.688 122.559C191.293 122.134 191.809 121.595 192.205 120.971Z" fill="#455A64"/>
<path d="M192.163 118.626C192.05 117.855 191.77 117.119 191.342 116.467C190.838 115.777 190.099 115.293 189.263 115.108C188.761 114.99 188.239 114.978 187.732 115.075C187.225 115.172 186.744 115.374 186.321 115.668L185.853 116.011V115.43C185.9 114.855 185.833 114.277 185.656 113.728C185.468 113.132 185.162 112.58 184.754 112.105C184.347 111.631 183.847 111.244 183.286 110.968C182.341 110.538 181.277 110.443 180.271 110.698C179.333 110.97 178.472 111.457 177.755 112.12C177.755 112.12 177.87 111.839 178.234 111.455C178.924 110.805 179.789 110.369 180.723 110.202C181.657 110.034 182.62 110.142 183.494 110.511C184.128 110.806 184.694 111.23 185.156 111.755C185.617 112.28 185.965 112.896 186.175 113.562C186.372 114.182 186.443 114.834 186.383 115.482L185.968 115.233C186.454 114.899 187.006 114.674 187.588 114.574C188.169 114.473 188.765 114.5 189.336 114.651C190.246 114.9 191.031 115.477 191.539 116.27C191.875 116.78 192.078 117.365 192.132 117.972C192.246 118.439 192.194 118.626 192.163 118.626Z" fill="#455A64"/>
<path d="M179.845 118.802C179.762 118.802 179.845 118.46 179.845 117.982C179.792 117.36 179.585 116.761 179.242 116.239C178.858 115.627 178.39 115.004 178.13 114.672C177.87 114.34 177.548 114.579 177.506 114.548C177.465 114.517 177.506 114.413 177.631 114.309C177.746 114.249 177.875 114.223 178.004 114.234C178.133 114.245 178.256 114.293 178.359 114.371C178.607 114.572 178.833 114.798 179.034 115.046C179.282 115.333 179.508 115.639 179.71 115.959C180.115 116.571 180.299 117.304 180.23 118.034C180.136 118.553 179.897 118.833 179.845 118.802Z" fill="#455A64"/>
<path d="M168.379 111.362C168.317 111.362 168.379 110.906 168.733 110.324C168.959 109.958 169.26 109.643 169.616 109.401C170.081 109.101 170.638 108.979 171.186 109.058C172.126 109.232 172.965 109.755 173.535 110.522C173.972 111.072 174.169 111.445 174.107 111.487C174.045 111.528 173.743 111.238 173.255 110.781C172.683 110.176 171.939 109.759 171.124 109.588C170.723 109.548 170.32 109.616 169.954 109.784C169.589 109.952 169.275 110.213 169.044 110.542C168.639 111.009 168.452 111.393 168.379 111.362Z" fill="#455A64"/>
<path d="M171.384 136.443C170.412 135.362 169.7 134.073 169.305 132.676C168.75 131.336 168.505 129.889 168.587 128.442C168.743 128.442 169.045 130.3 169.814 132.499C170.583 134.699 171.519 136.36 171.384 136.443Z" fill="#455A64"/>
<path d="M173.982 137.864C172.794 136.194 172.056 134.246 171.841 132.209C172.369 133.073 172.775 134.005 173.047 134.98C173.49 135.893 173.805 136.864 173.982 137.864Z" fill="#455A64"/>
<path d="M190.261 138.269C190.45 140.029 190.222 141.81 189.596 143.466C188.969 145.122 187.961 146.609 186.654 147.805C187.578 146.357 188.391 144.841 189.086 143.27C189.612 141.637 190.004 139.965 190.261 138.269Z" fill="#455A64"/>
<path d="M192.86 134.004C193.391 135.506 193.52 137.121 193.234 138.688C192.948 140.255 192.256 141.72 191.228 142.938C191.845 141.535 192.339 140.08 192.704 138.591C192.886 137.069 192.938 135.535 192.86 134.004Z" fill="#455A64"/>
<path d="M185.375 296.991L191.062 351.748L195.147 434.201H216.946L217.538 258.711L155.125 263.152L142.194 355.224L153.4 435.81H177.309L171.716 359.188L185.375 296.991Z" fill="#263238"/>
<path d="M185.376 296.991C184.088 298.497 182.669 299.886 181.134 301.141C179.718 302.535 178.177 303.796 176.529 304.908C179.233 301.998 182.193 299.338 185.376 296.959V296.991Z" fill="#455A64"/>
<path d="M185.313 295.88C185.207 293.535 185.246 291.186 185.427 288.845C185.428 286.501 185.564 284.159 185.833 281.83C186.187 286.518 186.012 291.231 185.313 295.88Z" fill="#455A64"/>
<path d="M192.517 275.459C192.635 275.451 192.753 275.451 192.87 275.459L193.91 275.397L198.068 275.189L212.85 274.577H213.099V274.826C213.099 279.433 213.099 284.642 213.099 290.142V290.619L212.923 290.692L203.307 294.531H203.224H203.13L194.627 291.584L194.502 291.532V291.397C193.879 286.624 193.359 282.64 192.995 279.786C192.829 278.447 192.694 277.379 192.6 276.59C192.543 276.226 192.508 275.858 192.496 275.49C192.528 275.595 192.553 275.703 192.569 275.812C192.569 276.04 192.652 276.331 192.714 276.673C192.839 277.472 193.005 278.551 193.224 279.9C193.65 282.712 194.263 286.635 194.949 291.314L194.804 291.128L203.349 294.012H203.172L212.777 290.142L212.6 290.401V290.1C212.6 284.601 212.6 279.392 212.6 274.784L212.85 275.033L198.234 275.397L194.076 275.469H192.953C192.808 275.483 192.662 275.479 192.517 275.459Z" fill="#455A64"/>
<path d="M161.051 275.729C161.154 275.714 161.259 275.714 161.363 275.729H162.34L166.072 275.615L179.585 275.303H179.835V275.552C179.689 280.097 179.523 285.337 179.346 290.92V291.055L179.232 291.138L177.673 292.176L169.772 297.312L169.627 297.406L169.492 297.323L160.593 291.906L160.479 291.844V291.709C160.645 286.935 160.791 282.961 160.884 280.108C160.947 278.779 160.988 277.711 161.03 276.922C161.035 276.558 161.059 276.194 161.103 275.832C161.11 275.936 161.11 276.04 161.103 276.144V277.015C161.103 277.814 161.103 278.904 161.103 280.253C161.103 283.075 160.999 287.008 160.926 291.719L160.822 291.522L169.762 296.876H169.481L177.371 291.688L178.93 290.65L178.816 290.868C179.014 285.286 179.211 280.056 179.377 275.511L179.617 275.749L166.28 275.822H162.485H161.446C161.311 275.808 161.178 275.777 161.051 275.729Z" fill="#455A64"/>
<path d="M210.802 300.529C209.817 300.593 208.829 300.562 207.85 300.436C206.031 300.301 203.515 300.062 200.76 299.699C198.006 299.336 195.511 298.941 193.723 298.609C192.755 298.483 191.801 298.264 190.875 297.956C191.862 297.967 192.846 298.065 193.816 298.246L200.875 299.18L207.923 300.072C208.894 300.143 209.857 300.296 210.802 300.529Z" fill="#455A64"/>
<path d="M210.293 361.565C210.293 361.565 210.21 361.876 209.784 362.25C209.152 362.759 208.36 363.027 207.549 363.007C206.353 362.978 205.204 362.538 204.295 361.762C203.21 360.86 202.214 359.856 201.322 358.763C199.66 356.83 198.184 354.746 196.914 352.537C196.343 351.651 195.879 350.7 195.532 349.704C196.151 350.549 196.72 351.429 197.237 352.34C198.597 354.453 200.101 356.471 201.738 358.379C202.606 359.443 203.562 360.433 204.596 361.336C205.419 362.068 206.46 362.509 207.559 362.592C208.292 362.64 209.021 362.45 209.638 362.052C210.085 361.793 210.251 361.534 210.293 361.565Z" fill="#455A64"/>
<path d="M167.246 363.484C167.212 363.738 167.112 363.977 166.955 364.18C166.572 364.769 166.056 365.259 165.448 365.612C164.54 366.142 163.505 366.414 162.454 366.4C161.17 366.353 159.923 365.959 158.847 365.259C156.963 363.951 155.468 362.158 154.522 360.07C154.074 359.261 153.725 358.4 153.483 357.507C154.015 358.262 154.488 359.056 154.897 359.884C155.908 361.834 157.378 363.511 159.179 364.771C160.176 365.414 161.321 365.793 162.506 365.871C163.476 365.909 164.44 365.695 165.302 365.248C166.071 364.808 166.734 364.206 167.246 363.484Z" fill="#455A64"/>
<path d="M168.639 355.224C168.113 355.684 167.502 356.036 166.841 356.262C165.292 356.918 163.636 357.287 161.955 357.352C160.275 357.418 158.596 357.186 156.997 356.667C156.322 356.495 155.687 356.195 155.125 355.785C159.533 357.348 164.376 357.148 168.639 355.224Z" fill="#455A64"/>
<path d="M272.383 95.517L275.502 96.3264L274.463 100.768C274.463 100.768 272.3 106.07 270.065 104.669C268.09 103.434 269.504 100.757 269.504 100.757C269.504 100.757 273.766 96.1292 271.001 94.8114C270.627 94.6246 267.415 97.6442 265.803 99.2007C265.217 99.7703 264.871 100.543 264.837 101.359L264.442 110.252C264.356 111.897 264.715 113.535 265.481 114.994L266.687 117.215L264.473 121.272L274.868 127.975L279.234 113.79L282.56 105.489C282.611 105.011 282.543 104.528 282.362 104.082C282.18 103.637 281.892 103.243 281.521 102.936L280.627 102.179L280.845 101.006C280.908 100.664 280.878 100.31 280.757 99.9836C280.637 99.6568 280.43 99.3684 280.159 99.1488L279.598 98.6819L280.076 96.8037C280.221 95.932 281.178 92.7983 275.128 92.9747C275.128 92.9747 272.009 92.8709 271.645 93.8982C271.5 94.6557 271.645 95.3406 272.383 95.517Z" fill="#FFBE9D"/>
<path d="M278.475 105.863C278.636 105.528 278.772 105.181 278.88 104.825C279.079 103.918 278.977 102.971 278.589 102.127C278.695 101.186 278.907 100.26 279.223 99.3668C279.334 98.9969 279.502 98.6467 279.722 98.3291C279.722 98.3291 279.566 98.7442 279.358 99.429C279.096 100.308 278.908 101.207 278.797 102.117C278.859 102.345 278.963 102.594 279.036 102.853C279.106 103.097 279.148 103.347 279.161 103.6C279.187 104.031 279.138 104.463 279.015 104.877C278.934 105.153 278.819 105.418 278.672 105.665C278.617 105.741 278.55 105.807 278.475 105.863Z" fill="#EB996E"/>
<path d="M280.627 105.987C280.701 105.804 280.75 105.612 280.772 105.416C280.783 105.177 280.735 104.939 280.634 104.722C280.533 104.506 280.38 104.316 280.19 104.171V104.098V103.901C280.321 103.133 280.516 102.376 280.772 101.639C280.717 102.417 280.588 103.189 280.387 103.943V104.15V104.047C280.601 104.209 280.767 104.426 280.87 104.674C280.972 104.922 281.006 105.192 280.97 105.458C280.855 105.821 280.647 105.987 280.627 105.987Z" fill="#EB996E"/>
<path d="M269.93 91.4596L282.716 116.208C282.793 116.357 282.841 116.52 282.855 116.687C282.869 116.855 282.85 117.023 282.799 117.183C282.748 117.343 282.665 117.492 282.557 117.62C282.448 117.748 282.315 117.854 282.165 117.93C281.864 118.083 281.515 118.111 281.194 118.008C280.873 117.905 280.605 117.68 280.45 117.381L267.664 92.6218L267.539 89.6125L269.93 91.4596Z" fill="#95ABE5"/>
<path d="M264.566 105.862L264.909 99.7091L270.793 94.5208C270.793 94.5208 272.29 95.5584 272.113 96.5961C271.936 97.6338 269.441 100.747 269.441 100.747C269.125 101.147 268.927 101.627 268.871 102.133C268.814 102.639 268.9 103.151 269.119 103.611" fill="#FFBE9D"/>
<path d="M141.747 188.046L133.213 191.138L123.93 218.076L142.724 202.22L141.747 188.046Z" fill="#95ABE5"/>
<path d="M262.539 118.439L245.584 145.128L218.391 159.458C218.391 159.458 214.077 156.978 211.987 157.383C210.459 157.871 209.105 158.79 208.089 160.029L212.247 194.988L222.538 187.382L257.653 167.749L278.267 128.816L262.539 118.439Z" fill="#95ABE5"/>
<path d="M152.329 170.561C149.188 172.806 146.748 175.892 145.291 179.464C143.441 183.905 131.653 203.984 124.99 215.585C122.557 219.809 122.339 227.218 125.707 230.735C129.761 234.969 134.605 233.319 140.52 231.399C143.171 230.538 155.073 212.255 155.073 212.255L152.329 170.561Z" fill="#95ABE5"/>
<path d="M157.859 249.829L150.572 187.247L152.329 170.561L170.884 162.675L194.908 161.108L217.788 163.619L212.434 227.809L218.287 264.013L154.211 266.909L157.859 249.829Z" fill="#95ABE5"/>
<path d="M157.61 249.808C157.454 249.808 155.718 235.882 153.712 218.678C151.705 201.473 150.208 187.548 150.354 187.486C150.5 187.423 152.246 201.401 154.252 218.616C156.258 235.831 157.735 249.787 157.61 249.808Z" fill="#263238"/>
<path d="M217.071 177.908C217.093 178.094 217.093 178.282 217.071 178.468C217.071 178.894 216.977 179.433 216.925 180.076L216.322 185.981C215.813 191.034 215.127 197.883 214.357 205.447C213.588 213.012 213.048 219.975 212.673 224.945C212.497 227.384 212.351 229.386 212.247 230.86C212.195 231.503 212.154 232.043 212.112 232.468C212.105 232.657 212.081 232.844 212.039 233.029C212.013 232.839 212.013 232.647 212.039 232.458C212.039 232.032 212.039 231.503 212.039 230.85C212.039 229.449 212.164 227.425 212.289 224.914C212.569 219.913 213.1 213.012 213.827 205.396C214.555 197.779 215.324 190.868 215.906 185.939C216.218 183.449 216.478 181.436 216.686 180.056C216.779 179.412 216.863 178.883 216.925 178.458C216.946 178.268 216.995 178.083 217.071 177.908Z" fill="#263238"/>
<path d="M206.041 240.209C205.736 240.657 205.388 241.074 205.001 241.454C204.6 241.933 204.166 242.384 203.702 242.803C203.161 243.302 202.579 243.914 201.852 244.474C201.08 245.124 200.275 245.734 199.44 246.3C198.567 246.944 197.548 247.514 196.498 248.137C191.835 250.725 186.663 252.265 181.342 252.651C180.187 252.736 179.028 252.76 177.87 252.724C176.858 252.712 175.849 252.643 174.845 252.516C174.017 252.433 173.195 252.305 172.381 252.132C171.763 252.033 171.152 251.894 170.552 251.717C170.036 251.613 169.531 251.46 169.044 251.26C169.044 251.146 171.259 251.831 174.907 252.163C175.898 252.267 176.894 252.316 177.891 252.309C178.93 252.309 180.115 252.257 181.321 252.184C183.933 251.951 186.517 251.465 189.034 250.731C191.551 249.968 193.988 248.963 196.311 247.732C197.351 247.131 198.39 246.581 199.242 245.958C200.083 245.421 200.892 244.835 201.665 244.204C204.502 241.921 205.958 240.126 206.041 240.209Z" fill="#263238"/>
<path d="M210.064 163.277C211.776 163.896 213.236 165.059 214.222 166.587C215.357 168.01 216.002 169.76 216.062 171.578C215.496 169.932 214.732 168.36 213.785 166.898C212.701 165.541 211.451 164.324 210.064 163.277Z" fill="#263238"/>
<path d="M122.537 227.394C122.416 227.011 122.35 226.613 122.339 226.211C122.223 225.119 122.199 224.018 122.266 222.922C122.521 219.282 123.709 215.77 125.718 212.721C127.952 209.152 130 205.945 131.508 203.631L133.316 200.902C133.516 200.554 133.76 200.233 134.044 199.948C133.902 200.314 133.717 200.662 133.493 200.985C133.046 201.753 132.454 202.687 131.83 203.797C130.406 206.163 128.41 209.411 126.185 212.97C124.217 215.953 123.004 219.368 122.651 222.922C122.412 225.661 122.651 227.394 122.537 227.394Z" fill="#263238"/>
<path d="M204.451 166.317C203.879 163.609 202.205 161.274 200.584 159.053C199.471 157.518 198.078 155.826 196.186 155.785C194.658 155.785 193.359 156.822 192.122 157.704C185.511 162.426 177.766 161.969 170.375 158.586L170.188 157.549C169.45 157.019 166.675 159.624 166.124 161.015C165.671 162.5 165.65 164.083 166.061 165.58C167.218 171.276 170.369 176.375 174.949 179.962C177.244 181.715 179.886 182.96 182.7 183.615C185.514 184.27 188.435 184.319 191.27 183.76C194.097 183.153 196.729 181.852 198.927 179.975C201.125 178.098 202.819 175.705 203.858 173.01C204.67 170.876 204.875 168.56 204.451 166.317Z" fill="#95ABE5"/>
<path d="M204.264 166.877C204.312 167.109 204.337 167.346 204.336 167.583C204.336 168.05 204.409 168.735 204.43 169.658C204.535 172.158 204.41 174.663 204.056 177.14C203.804 178.862 203.336 180.546 202.663 182.152C201.874 184.006 200.71 185.677 199.243 187.06C197.508 188.588 195.469 189.733 193.26 190.419C191.052 191.106 188.722 191.319 186.425 191.045C181.832 190.411 177.585 188.255 174.367 184.922C171.747 182.255 169.708 179.075 168.379 175.583C167.461 173.238 166.788 170.804 166.373 168.32C166.217 167.448 166.134 166.774 166.082 166.307C166.057 166.072 166.057 165.836 166.082 165.601C166.16 165.826 166.213 166.059 166.238 166.296C166.321 166.753 166.446 167.427 166.633 168.289C167.125 170.724 167.846 173.107 168.785 175.407C170.144 178.823 172.18 181.929 174.772 184.539C177.924 187.769 182.065 189.857 186.54 190.474C188.76 190.74 191.012 190.538 193.15 189.882C195.288 189.227 197.264 188.131 198.952 186.666C200.382 185.335 201.522 183.725 202.299 181.934C202.979 180.371 203.461 178.729 203.733 177.047C204.112 174.592 204.293 172.111 204.274 169.627C204.274 168.787 204.274 168.112 204.274 167.552C204.246 167.328 204.242 167.102 204.264 166.877Z" fill="#263238"/>
<g opacity="0.3">
<path d="M194.315 156.241C196.062 160.195 197.434 163.775 195.688 167.749C194.18 171.204 190.199 173.176 186.415 173.02C182.611 172.696 179.053 171.012 176.394 168.278C173.767 165.561 171.474 162.541 169.564 159.282L170.147 157.829L170.375 158.566C170.375 158.566 179.357 162.83 185.552 160.641C192.288 158.337 194.315 156.241 194.315 156.241Z" fill="black"/>
</g>
<path d="M200.989 173.622C200.772 173.908 200.521 174.166 200.24 174.39C199.508 175.033 198.722 175.613 197.891 176.123C195.141 177.842 192.021 178.881 188.788 179.153C185.555 179.426 182.304 178.924 179.305 177.69C178.399 177.322 177.526 176.877 176.695 176.362C176.378 176.195 176.087 175.981 175.833 175.729C175.884 175.646 177.163 176.486 179.44 177.327C182.406 178.44 185.583 178.879 188.74 178.613C191.898 178.348 194.956 177.384 197.694 175.791C199.804 174.587 200.927 173.539 200.989 173.622Z" fill="#263238"/>
<path d="M193.712 155.899C193.817 156.018 193.904 156.151 193.972 156.293C194.118 156.563 194.326 156.968 194.565 157.497C195.26 159.017 195.719 160.633 195.927 162.291C196.266 164.788 195.73 167.325 194.409 169.472C193.625 170.746 192.521 171.794 191.207 172.512C189.77 173.251 188.146 173.55 186.54 173.373C184.964 173.196 183.426 172.779 181.976 172.138C180.632 171.562 179.35 170.849 178.151 170.011C176.113 168.595 174.334 166.84 172.891 164.823C171.921 163.47 171.121 162.002 170.51 160.454C170.336 160.039 170.19 159.613 170.074 159.178C170.017 159.032 169.982 158.878 169.97 158.721C170.807 160.802 171.892 162.774 173.203 164.595C174.648 166.536 176.404 168.225 178.4 169.596C179.579 170.411 180.836 171.106 182.153 171.671C183.554 172.285 185.04 172.684 186.56 172.854C188.062 173.028 189.581 172.753 190.926 172.066C192.163 171.39 193.208 170.412 193.962 169.223C195.241 167.17 195.787 164.745 195.511 162.343C195.338 160.717 194.947 159.122 194.346 157.601C193.993 156.501 193.671 155.909 193.712 155.899Z" fill="#263238"/>
<path d="M217.122 258.918C216.912 258.945 216.699 258.945 216.488 258.918H214.669L207.954 258.835C202.299 258.835 194.44 258.908 185.843 259.385C177.246 259.863 169.429 260.662 163.805 261.326L157.152 262.156L155.344 262.384C155.129 262.401 154.914 262.401 154.699 262.384C154.901 262.309 155.11 262.257 155.323 262.229L157.121 261.907C158.681 261.637 160.947 261.295 163.764 260.869C169.377 260.101 177.174 259.251 185.812 258.794C194.45 258.337 202.299 258.275 207.964 258.41C210.792 258.472 213.089 258.555 214.669 258.649L216.488 258.773C216.705 258.794 216.918 258.843 217.122 258.918Z" fill="#263238"/>
<path d="M150.801 172.398C150.612 172.8 150.382 173.183 150.115 173.539C149.585 174.338 148.909 175.345 148.119 176.548C146.435 179.091 144.148 182.619 141.757 186.603C139.366 190.588 137.319 194.272 135.863 196.98L134.148 200.155C133.958 200.558 133.728 200.94 133.462 201.297C133.584 200.869 133.751 200.455 133.961 200.062C134.304 199.284 134.844 198.163 135.531 196.804C136.892 194.075 138.888 190.349 141.289 186.354C143.691 182.359 146.03 178.842 147.807 176.351C148.691 175.106 149.419 174.11 149.938 173.435C150.19 173.061 150.479 172.713 150.801 172.398Z" fill="#263238"/>
<path d="M274.858 135.509C273.967 135.101 273.115 134.615 272.311 134.056C270.783 133.091 268.704 131.721 266.448 130.133C264.192 128.546 262.186 127.02 260.772 125.983C259.972 125.421 259.224 124.789 258.537 124.094C259.405 124.543 260.226 125.074 260.99 125.682C262.612 126.813 264.587 128.193 266.76 129.729L272.529 133.765C273.358 134.272 274.138 134.856 274.858 135.509Z" fill="#263238"/>
<path d="M166.56 172.336C166.292 172.499 166.002 172.622 165.697 172.699C165.136 172.896 164.294 173.124 163.254 173.373C161.175 173.882 158.233 174.266 155.105 175.085C152.433 175.736 149.945 176.985 147.828 178.738C147.008 179.531 146.257 180.392 145.583 181.311C145.67 181.009 145.804 180.723 145.978 180.46C146.412 179.726 146.947 179.055 147.568 178.468C149.666 176.565 152.212 175.223 154.969 174.566C158.161 173.736 161.103 173.404 163.182 173C165.261 172.595 166.539 172.252 166.56 172.336Z" fill="#FAFAFA"/>
<path d="M166.31 168.455C165.521 168.862 164.692 169.189 163.836 169.43L157.797 171.505L151.778 173.664C150.979 174.015 150.146 174.286 149.293 174.473C150.047 173.999 150.853 173.613 151.695 173.321C153.202 172.678 155.312 171.848 157.672 171.007C160.032 170.167 162.194 169.492 163.774 169.036C164.596 168.75 165.446 168.555 166.31 168.455Z" fill="#FAFAFA"/>
<path d="M169.045 176.154C168.775 175.491 168.606 174.792 168.546 174.079C168.293 172.361 168.185 170.626 168.223 168.89C168.148 167.126 168.604 165.381 169.533 163.878C170.323 162.758 171.165 162.426 171.176 162.488C170.684 162.976 170.242 163.511 169.855 164.086C169.074 165.567 168.698 167.228 168.764 168.901C168.65 172.927 169.19 176.133 169.045 176.154Z" fill="#FAFAFA"/>
<path d="M172.07 172.823C172.018 172.823 171.706 172.502 171.425 171.786C171.066 170.856 170.955 169.848 171.102 168.863C171.25 167.877 171.651 166.946 172.267 166.161C172.735 165.57 173.141 165.311 173.182 165.362C172.455 166.452 171.934 167.665 171.644 168.942C171.543 170.251 171.688 171.567 172.07 172.823Z" fill="#FAFAFA"/>
<path d="M171.757 180.792C171.101 179.723 170.729 178.505 170.676 177.252C170.623 175.999 170.892 174.753 171.456 173.633C171.612 173.684 171.123 175.251 171.217 177.233C171.311 179.215 171.903 180.699 171.757 180.792Z" fill="#FAFAFA"/>
<path d="M214.181 167.324C214.181 167.479 212.102 167.251 209.576 167.407C207.05 167.562 205.023 168.008 204.981 167.853C206.411 167.187 207.967 166.834 209.544 166.815C211.109 166.648 212.69 166.821 214.181 167.324Z" fill="#FAFAFA"/>
<path d="M212.32 164.615C212.32 164.771 210.106 164.511 207.413 164.688C204.721 164.864 202.59 165.404 202.548 165.248C204.063 164.541 205.711 164.166 207.382 164.148C209.043 163.958 210.725 164.117 212.32 164.615Z" fill="#FAFAFA"/>
<path d="M218.869 163.505C218.869 163.588 218.474 163.505 217.892 163.505C217.136 163.497 216.404 163.763 215.831 164.254C215.257 164.744 214.881 165.426 214.773 166.172C214.659 166.743 214.711 167.126 214.628 167.147C214.544 167.168 214.368 166.794 214.388 166.11C214.4 165.675 214.502 165.248 214.688 164.855C214.875 164.463 215.142 164.113 215.472 163.83C215.802 163.546 216.188 163.335 216.604 163.209C217.021 163.084 217.46 163.047 217.892 163.1C218.557 163.204 218.942 163.453 218.869 163.505Z" fill="#FAFAFA"/>
<path d="M218.183 161.046C218.183 161.129 217.757 161.046 217.143 161.046C216.337 160.943 215.518 161.014 214.742 161.253C214.379 161.388 214.051 161.6 213.778 161.874C213.505 162.148 213.295 162.478 213.162 162.841C212.964 163.401 213.1 163.806 213.006 163.879C212.912 163.951 212.663 163.526 212.788 162.841C212.89 162.386 213.106 161.964 213.415 161.614C213.724 161.264 214.116 160.997 214.555 160.838C215.414 160.565 216.331 160.537 217.206 160.755C217.819 160.817 218.193 160.983 218.183 161.046Z" fill="#FAFAFA"/>
<path d="M260.522 125.059C260.457 125.247 260.374 125.428 260.273 125.599L259.483 127.072C258.734 128.421 257.705 130.248 256.468 132.479C255.231 134.71 253.63 137.459 251.925 140.448C251.063 141.932 250.21 143.561 249.16 145.117C248.094 146.783 246.71 148.222 245.085 149.351C243.454 150.424 241.764 151.404 240.023 152.288L235.251 154.851L227.143 159.157L221.665 162.021L220.168 162.768L219.627 163.007C219.772 162.871 219.937 162.759 220.116 162.675L221.571 161.834L226.977 158.815L235.023 154.394L239.784 151.81C241.501 150.927 243.17 149.954 244.784 148.895C248.11 146.705 249.732 143.115 251.51 140.189L256.146 132.271L259.264 126.958C259.628 126.377 259.919 125.921 260.148 125.526C260.249 125.353 260.375 125.196 260.522 125.059Z" fill="#FAFAFA"/>
<path d="M243.423 145.958C243.153 146.237 242.849 146.481 242.518 146.684C241.926 147.131 241.042 147.722 239.951 148.49C237.747 149.974 234.67 151.945 231.187 154.01C227.705 156.075 224.472 157.808 222.112 159.012C220.927 159.614 219.961 160.05 219.295 160.392C218.966 160.574 218.617 160.721 218.256 160.828C218.545 160.573 218.871 160.363 219.223 160.205L221.957 158.669C224.275 157.383 227.456 155.556 230.938 153.543C234.42 151.53 237.529 149.569 239.774 148.168L242.435 146.518C242.739 146.291 243.071 146.103 243.423 145.958Z" fill="#FAFAFA"/>
<path d="M145.344 181.093C145.479 181.176 142.007 187.485 137.61 195.195C133.212 202.905 129.522 209.1 129.397 209.027C129.273 208.955 132.734 202.635 137.142 194.926C141.549 187.216 145.219 181.021 145.344 181.093Z" fill="#FAFAFA"/>
<path d="M339.816 444.868C339.102 437.834 335.798 431.315 330.543 426.574C325.289 421.833 318.458 419.208 311.375 419.208C304.292 419.208 297.461 421.833 292.207 426.574C286.952 431.315 283.648 437.834 282.934 444.868H278.433V453.709H344.317V444.868H339.816ZM311.375 428.338C316.029 428.34 320.527 430.01 324.051 433.044C327.575 436.077 329.89 440.274 330.575 444.868H292.165C292.85 440.272 295.167 436.074 298.693 433.04C302.219 430.006 306.72 428.337 311.375 428.338Z" fill="#455A64"/>
<path d="M288.381 438.497C288.329 438.642 287.508 438.497 286.552 438.134C285.595 437.771 284.868 437.387 284.92 437.252C284.972 437.117 285.782 437.252 286.739 437.626C287.695 437.999 288.423 438.362 288.381 438.497Z" fill="#263238"/>
<path d="M291.209 432.966C291.115 433.091 290.387 432.697 289.566 432.095C288.745 431.493 288.163 430.902 288.256 430.787C288.35 430.673 289.078 431.057 289.889 431.659C290.699 432.261 291.302 432.852 291.209 432.966Z" fill="#263238"/>
<path d="M295.491 428.494C295.366 428.577 294.784 427.986 294.202 427.156C293.62 426.326 293.225 425.599 293.35 425.506C293.474 425.412 294.046 426.025 294.639 426.844C295.231 427.664 295.606 428.411 295.491 428.494Z" fill="#263238"/>
<path d="M301.999 424.551C301.853 424.551 301.448 423.887 301.073 422.943C300.699 421.998 300.522 421.179 300.668 421.127C300.814 421.075 301.209 421.801 301.583 422.745C301.957 423.69 302.103 424.551 301.999 424.551Z" fill="#263238"/>
<path d="M309.826 422.704C309.681 422.704 309.411 421.947 309.223 420.95C309.036 419.954 308.995 419.124 309.14 419.093C309.286 419.062 309.566 419.85 309.754 420.847C309.941 421.843 309.972 422.673 309.826 422.704Z" fill="#263238"/>
<path d="M335.087 441.424C335.087 441.278 335.815 440.957 336.792 440.697C337.769 440.438 338.6 440.355 338.642 440.5C338.684 440.645 337.914 440.967 336.927 441.216C335.939 441.465 335.118 441.569 335.087 441.424Z" fill="#263238"/>
<path d="M332.779 435.644C332.706 435.519 333.351 434.99 334.214 434.461C335.076 433.931 335.856 433.62 335.929 433.745C336.002 433.869 335.367 434.409 334.494 434.928C333.621 435.446 332.862 435.768 332.779 435.644Z" fill="#263238"/>
<path d="M329.369 430.258C329.255 430.154 329.702 429.459 330.409 428.691C331.116 427.923 331.708 427.384 331.823 427.477C331.937 427.57 331.49 428.276 330.783 429.044C330.076 429.812 329.484 430.351 329.369 430.258Z" fill="#263238"/>
<path d="M323.652 426.294C323.527 426.232 323.787 425.443 324.234 424.53C324.681 423.617 325.17 422.942 325.273 423.015C325.377 423.088 325.149 423.866 324.691 424.779C324.234 425.692 323.787 426.367 323.652 426.294Z" fill="#263238"/>
<path d="M316.23 423.679C316.084 423.679 316.23 422.808 316.479 421.843C316.729 420.878 317.113 420.11 317.259 420.151C317.404 420.193 317.259 421.013 316.999 421.988C316.739 422.963 316.375 423.721 316.23 423.679Z" fill="#263238"/>
<path d="M247.788 338.528H239.285V453.575H247.788V338.528Z" fill="#95ABE5"/>
<path d="M247.871 446.736C246.365 447.096 244.794 447.096 243.287 446.736C244.794 446.377 246.365 446.377 247.871 446.736Z" fill="#263238"/>
<path d="M247.871 435.55C246.365 435.91 244.794 435.91 243.287 435.55C244.794 435.191 246.365 435.191 247.871 435.55Z" fill="#263238"/>
<path d="M247.871 424.364C246.365 424.724 244.794 424.724 243.287 424.364C244.794 424.005 246.365 424.005 247.871 424.364Z" fill="#263238"/>
<path d="M247.871 413.137C246.365 413.496 244.794 413.496 243.287 413.137C244.794 412.777 246.365 412.777 247.871 413.137Z" fill="#263238"/>
<path d="M247.871 401.992C246.365 402.352 244.794 402.352 243.287 401.992C244.794 401.632 246.365 401.632 247.871 401.992Z" fill="#263238"/>
<path d="M247.871 390.806C246.365 391.166 244.794 391.166 243.287 390.806C244.794 390.446 246.365 390.446 247.871 390.806Z" fill="#263238"/>
<path d="M247.871 379.62C246.365 379.98 244.794 379.98 243.287 379.62C244.794 379.26 246.365 379.26 247.871 379.62Z" fill="#263238"/>
<path d="M247.871 368.434C246.365 368.794 244.794 368.794 243.287 368.434C244.794 368.074 246.365 368.074 247.871 368.434Z" fill="#263238"/>
<path d="M247.871 357.248C246.365 357.608 244.794 357.608 243.287 357.248C244.794 356.888 246.365 356.888 247.871 357.248Z" fill="#263238"/>
<path d="M247.871 346.052C246.365 346.411 244.794 346.411 243.287 346.052C244.794 345.692 246.365 345.692 247.871 346.052Z" fill="#263238"/>
<path d="M255.969 406.444V453.305H320.315L255.969 406.444ZM266.052 425.9L291.354 444.339H266.052V425.9Z" fill="#95ABE5"/>
<path d="M263.536 412.151C263.661 412.234 263.245 413.054 262.611 413.988C261.977 414.921 261.353 415.617 261.229 415.523C261.104 415.43 261.53 414.62 262.164 413.687C262.798 412.753 263.412 412.099 263.536 412.151Z" fill="#263238"/>
<path d="M270.709 417.412C270.834 417.495 270.449 418.294 269.846 419.186C269.244 420.079 268.661 420.743 268.537 420.66C268.412 420.577 268.797 419.788 269.399 418.885C270.002 417.983 270.585 417.287 270.709 417.412Z" fill="#263238"/>
<path d="M278.422 423.233C278.547 423.316 278.163 424.105 277.57 424.997C276.978 425.89 276.385 426.554 276.26 426.471C276.136 426.388 276.52 425.599 277.123 424.707C277.726 423.814 278.308 423.15 278.422 423.233Z" fill="#263238"/>
<path d="M286.146 429.044C286.271 429.127 285.886 429.916 285.294 430.819C284.701 431.721 284.109 432.375 283.984 432.292C283.859 432.209 284.244 431.41 284.836 430.518C285.429 429.625 286.021 428.961 286.146 429.044Z" fill="#263238"/>
<path d="M293.87 434.855C293.995 434.938 293.61 435.737 293.007 436.629C292.404 437.522 291.822 438.186 291.697 438.103C291.573 438.02 291.957 437.231 292.56 436.329C293.163 435.426 293.787 434.772 293.87 434.855Z" fill="#263238"/>
<path d="M301.594 440.676C301.718 440.759 301.334 441.548 300.731 442.44C300.128 443.333 299.546 443.997 299.421 443.914C299.296 443.831 299.681 443.042 300.284 442.14C300.887 441.237 301.469 440.593 301.594 440.676Z" fill="#263238"/>
<path d="M309.307 446.487C309.432 446.57 309.047 447.359 308.454 448.262C307.862 449.165 307.269 449.818 307.145 449.735C307.02 449.652 307.404 448.853 307.997 447.961C308.59 447.069 309.182 446.404 309.307 446.487Z" fill="#263238"/>
</svg>
