<svg width="150" height="106" viewBox="0 0 150 106" fill="none" xmlns="http://www.w3.org/2000/svg">
<path d="M72.9218 80.8737L71.9473 81.0985L71.9446 81.0858L72.9218 80.8737ZM71.8406 66.199L71.1253 66.8978L71.8406 66.199ZM14.127 90.6876C13.7138 91.0541 13.0818 91.0161 12.7153 90.6029L6.74398 83.8692C6.37755 83.456 6.41547 82.824 6.82868 82.4575C7.2419 82.0911 7.87393 82.129 8.24037 82.5422L13.5482 88.5278L19.5338 83.2199C19.947 82.8535 20.579 82.8914 20.9454 83.3046C21.3119 83.7178 21.2739 84.3499 20.8607 84.7163L14.127 90.6876ZM132.765 1.97441C119.244 5.09355 102.755 16.7801 90.5066 31.7949C78.2478 46.8225 70.4741 64.8862 73.8991 80.6615L71.9446 81.0858C68.3273 64.4249 76.5515 45.7378 88.9569 30.5306C101.373 15.3106 118.215 3.27839 132.316 0.0255892L132.765 1.97441ZM71.1253 66.8978C68.3541 64.0614 63.5772 61.8565 57.8235 60.7442C52.093 59.6363 45.5098 59.6361 39.2315 61.098C32.9545 62.5596 27.0251 65.4716 22.5418 70.1502C18.0704 74.8164 14.9841 81.294 14.4617 89.9993L12.4653 89.8795C13.0142 80.732 16.2771 73.7971 21.0978 68.7665C25.9065 63.7482 32.2121 60.6789 38.778 59.1501C45.3425 57.6216 52.21 57.6219 58.2032 58.7805C64.1731 59.9347 69.3928 62.2626 72.5559 65.5001L71.1253 66.8978ZM73.8962 80.6489C75.0312 85.5691 76.9019 88.3835 78.5512 89.5986C79.3694 90.2014 80.0759 90.3736 80.6 90.3183C81.0994 90.2656 81.5647 89.9947 81.9278 89.4163C82.6947 88.1946 82.9642 85.5897 81.4602 81.6425C79.9766 77.7489 76.8268 72.7334 71.1253 66.8978L72.5559 65.5001C78.3878 71.4693 81.721 76.7099 83.3291 80.9304C84.9168 85.0973 84.8867 88.4645 83.6217 90.4796C82.9688 91.5197 81.9851 92.1833 80.8098 92.3073C79.6592 92.4286 78.4654 92.0195 77.3649 91.2088C75.1769 89.5968 73.1371 86.2557 71.9474 81.0984L73.8962 80.6489Z" fill="#13191F"/>
</svg>
