<svg height="0" width="0">
    <svg id="bio" width="1em" height="1em" viewBox="0 0 27 27" fill="none" xmlns="http://www.w3.org/2000/svg">
        <path d="M13.5 21.375C17.8492 21.375 21.375 17.8492 21.375 13.5C21.375 9.15076 17.8492 5.625 13.5 5.625M13.5 21.375C9.15076 21.375 5.625 17.8492 5.625 13.5C5.625 9.15076 9.15076 5.625 13.5 5.625M13.5 21.375C16.1761 21.375 18.5404 22.7098 19.9634 24.75M13.5 21.375C10.8239 21.375 8.45953 22.7098 7.03647 24.75M13.5 5.625C16.1761 5.625 18.5404 4.29017 19.9634 2.25M13.5 5.625C10.8239 5.625 8.45953 4.29017 7.03647 2.25M6.75 11.25H20.25M6.75 15.75H20.25" stroke="currentColor" stroke-width="1.5" stroke-linecap="round"/>
    </svg>
    <svg id="books" width="1em" height="1em" viewBox="0 0 27 27" fill="none" xmlns="http://www.w3.org/2000/svg">
        <path d="M4.5 16.875H16.875C18.739 16.875 20.25 18.386 20.25 20.25C20.25 22.114 18.739 23.625 16.875 23.625H4.5M4.5 16.875V23.625M4.5 16.875H2.25M4.5 23.625H2.25M4.5 3.375H16.875C18.739 3.375 20.25 4.88604 20.25 6.75C20.25 8.61396 18.739 10.125 16.875 10.125H4.5M4.5 3.375V10.125M4.5 3.375H2.25M4.5 10.125H2.25M22.5 10.125H10.125C8.26104 10.125 6.75 11.636 6.75 13.5C6.75 15.364 8.26104 16.875 10.125 16.875H22.5M22.5 10.125V16.875M22.5 10.125H24.75M22.5 16.875H24.75" stroke="currentColor" stroke-width="1.5" stroke-linecap="round" stroke-linejoin="round"/>
    </svg>
    <svg id="chemistry" width="1em" height="1em" viewBox="0 0 27 27" fill="none" xmlns="http://www.w3.org/2000/svg">
        <path d="M14.625 2.25V1.5C14.2108 1.5 13.875 1.83579 13.875 2.25H14.625ZM19.125 2.25H19.875C19.875 1.83579 19.5392 1.5 19.125 1.5V2.25ZM19.125 9V9.75C19.5392 9.75 19.875 9.41421 19.875 9H19.125ZM14.625 9H13.875C13.875 9.41421 14.2108 9.75 14.625 9.75V9ZM13.5 1.5C13.0858 1.5 12.75 1.83579 12.75 2.25C12.75 2.66421 13.0858 3 13.5 3V1.5ZM20.25 3C20.6642 3 21 2.66421 21 2.25C21 1.83579 20.6642 1.5 20.25 1.5V3ZM7.5 2.25C7.5 1.83579 7.16421 1.5 6.75 1.5C6.33579 1.5 6 1.83579 6 2.25L7.5 2.25ZM6 24.75C6 25.1642 6.33579 25.5 6.75 25.5C7.16421 25.5 7.5 25.1642 7.5 24.75H6ZM4.5 8.25C4.08579 8.25 3.75 8.58579 3.75 9C3.75 9.41421 4.08579 9.75 4.5 9.75V8.25ZM22.5 9.75C22.9142 9.75 23.25 9.41421 23.25 9C23.25 8.58579 22.9142 8.25 22.5 8.25V9.75ZM4.5 24C4.08579 24 3.75 24.3358 3.75 24.75C3.75 25.1642 4.08579 25.5 4.5 25.5V24ZM22.5 25.5C22.9142 25.5 23.25 25.1642 23.25 24.75C23.25 24.3358 22.9142 24 22.5 24V25.5ZM14.625 3H19.125V1.5H14.625V3ZM18.375 2.25V9H19.875V2.25H18.375ZM19.125 8.25H14.625V9.75H19.125V8.25ZM15.375 9V2.25H13.875V9H15.375ZM21.75 14.625C21.75 17.3174 19.5674 19.5 16.875 19.5V21C20.3958 21 23.25 18.1458 23.25 14.625H21.75ZM16.875 19.5C14.1826 19.5 12 17.3174 12 14.625H10.5C10.5 18.1458 13.3542 21 16.875 21V19.5ZM12 14.625C12 11.9326 14.1826 9.75 16.875 9.75V8.25C13.3542 8.25 10.5 11.1042 10.5 14.625H12ZM16.875 9.75C19.5674 9.75 21.75 11.9326 21.75 14.625H23.25C23.25 11.1042 20.3958 8.25 16.875 8.25V9.75ZM13.5 3H20.25V1.5H13.5V3ZM6 2.25L6 24.75H7.5L7.5 2.25L6 2.25ZM4.5 9.75H22.5V8.25H4.5V9.75ZM4.5 25.5H22.5V24H4.5V25.5Z" fill="currentColor"/>
    </svg>
    <svg id="computer" width="1em" height="1em" viewBox="0 0 21 20" fill="none" xmlns="http://www.w3.org/2000/svg">
        <path d="M2.16675 10.9167H1.41675V12.4167H2.16675V10.9167ZM18.8334 12.4167H19.5834V10.9167H18.8334V12.4167ZM8.00008 17.5833C7.58587 17.5833 7.25008 17.9191 7.25008 18.3333C7.25008 18.7476 7.58587 19.0833 8.00008 19.0833V17.5833ZM13.0001 19.0833C13.4143 19.0833 13.7501 18.7476 13.7501 18.3333C13.7501 17.9191 13.4143 17.5833 13.0001 17.5833V19.0833ZM11.2501 15C11.2501 14.5858 10.9143 14.25 10.5001 14.25C10.0859 14.25 9.75008 14.5858 9.75008 15H11.2501ZM4.66675 2.41667H16.3334V0.916672H4.66675V2.41667ZM18.0834 4.16667V12.5H19.5834V4.16667H18.0834ZM16.3334 14.25H4.66675V15.75H16.3334V14.25ZM2.91675 12.5V4.16667H1.41675V12.5H2.91675ZM4.66675 14.25C3.70025 14.25 2.91675 13.4665 2.91675 12.5H1.41675C1.41675 14.2949 2.87182 15.75 4.66675 15.75V14.25ZM18.0834 12.5C18.0834 13.4665 17.2999 14.25 16.3334 14.25V15.75C18.1283 15.75 19.5834 14.2949 19.5834 12.5H18.0834ZM16.3334 2.41667C17.2999 2.41667 18.0834 3.20017 18.0834 4.16667H19.5834C19.5834 2.37175 18.1283 0.916672 16.3334 0.916672V2.41667ZM4.66675 0.916672C2.87182 0.916672 1.41675 2.37175 1.41675 4.16667H2.91675C2.91675 3.20017 3.70025 2.41667 4.66675 2.41667V0.916672ZM2.16675 12.4167H18.8334V10.9167H2.16675V12.4167ZM8.00008 19.0833H10.5001V17.5833H8.00008V19.0833ZM10.5001 19.0833H13.0001V17.5833H10.5001V19.0833ZM11.2501 18.3333V15H9.75008V18.3333H11.2501Z" fill="currentColor"/>
    </svg>
    <svg id="globe" width="1em" height="1em" viewBox="0 0 27 27" fill="none" xmlns="http://www.w3.org/2000/svg">
        <path d="M23.1024 18.1199C22.0578 19.1646 20.8176 19.9933 19.4526 20.5586C18.0877 21.124 16.6248 21.415 15.1475 21.415M15.1475 21.415C13.6701 21.415 12.2072 21.124 10.8423 20.5586C9.47736 19.9933 8.23717 19.1646 7.19251 18.1199C6.14785 17.0753 5.31918 15.8351 4.75382 14.4702C4.18845 13.1052 3.89746 11.6423 3.89746 10.165C3.89746 8.6876 4.18845 7.2247 4.75382 5.85978C5.31918 4.49487 6.14785 3.25468 7.19251 2.21002M15.1475 21.415L15.1477 24.79M15.1477 24.79H11.7727M15.1477 24.79H18.5227M23.0227 10.165C23.0227 14.5142 19.497 18.04 15.1477 18.04C10.7985 18.04 7.27271 14.5142 7.27271 10.165C7.27271 5.81574 10.7985 2.28998 15.1477 2.28998C19.497 2.28998 23.0227 5.81574 23.0227 10.165Z" stroke="currentColor" stroke-width="1.5" stroke-linecap="round"/>
    </svg>
    <svg id="history" width="1em" height="1em" viewBox="0 0 27 27" fill="none" xmlns="http://www.w3.org/2000/svg">
        <path d="M22.5 18H7.875C6.01104 18 4.5 19.511 4.5 21.375M22.5 18V21.375C22.5 23.239 20.989 24.75 19.125 24.75H7.875C6.01104 24.75 4.5 23.239 4.5 21.375M22.5 18V5.625C22.5 3.76104 20.989 2.25 19.125 2.25H7.875C6.01104 2.25 4.5 3.76104 4.5 5.625V21.375M10.125 2.25V10.125L13.5 7.65L16.875 10.125V2.25" stroke="currentColor" stroke-width="1.5" stroke-linecap="round" stroke-linejoin="round"/>
    </svg>
    <svg id="math" width="1em" height="1em" viewBox="0 0 27 27" fill="none" xmlns="http://www.w3.org/2000/svg">
        <path d="M3.375 14.625H5.0625C5.4166 14.625 5.75004 14.7917 5.9625 15.075L7.66283 17.3421C8.21668 18.0806 9.37514 17.8745 9.64039 16.9904L12.1345 8.67673C12.2772 8.20088 12.7152 7.875 13.212 7.875H23.625M20.3865 13.227L15.6135 18M20.3865 18L15.6135 13.227" stroke="currentColor" stroke-width="1.5" stroke-linecap="round" stroke-linejoin="round"/>
    </svg>
    <svg id="physics" width="1em" height="1em" viewBox="0 0 27 27" fill="none" xmlns="http://www.w3.org/2000/svg">
        <path d="M17.2594 17.2593C12.0688 22.4499 6.17798 24.9745 4.10177 22.8983C2.02556 20.8221 4.55021 14.9312 9.74074 9.74068C14.9313 4.55013 20.8221 2.02547 22.8983 4.10169C24.9745 6.1779 22.4499 12.0688 17.2594 17.2593Z" stroke="currentColor" stroke-width="1.5"/>
        <path d="M17.2593 9.74067C22.4498 14.9312 24.9744 20.8221 22.8982 22.8983C20.822 24.9745 14.9312 22.4499 9.74064 17.2593C4.55011 12.0688 2.02546 6.17789 4.10167 4.10167C6.17788 2.02545 12.0687 4.55012 17.2593 9.74067Z" stroke="currentColor" stroke-width="1.5"/>
        <path d="M15.75 13.5C15.75 14.7426 14.7426 15.75 13.5 15.75C12.2574 15.75 11.25 14.7426 11.25 13.5C11.25 12.2574 12.2574 11.25 13.5 11.25C14.7426 11.25 15.75 12.2574 15.75 13.5Z" stroke="currentColor" stroke-width="1.5"/>
    </svg>
    <svg id="russian" width="1em" height="1em" viewBox="0 0 27 27" fill="none" xmlns="http://www.w3.org/2000/svg">
        <path d="M4.09832 19.1954C3.97459 19.5518 3.63865 19.7908 3.2613 19.7908C2.64746 19.7908 2.21961 19.1818 2.42781 18.6043L6.49338 7.3285C6.69312 6.7745 7.2188 6.40523 7.80771 6.40523C8.39663 6.40523 8.92231 6.7745 9.12205 7.3285L13.1875 18.6041C13.3958 19.1817 12.9679 19.7908 12.3539 19.7908C11.9767 19.7908 11.6408 19.552 11.5169 19.1957L7.87332 8.7156C7.86313 8.68631 7.83551 8.66667 7.80449 8.66667C7.77346 8.66667 7.74583 8.68632 7.73565 8.71564L4.09832 19.1954ZM4.38398 15.3333C4.38398 14.9038 4.7322 14.5556 5.16176 14.5556H10.4472C10.8767 14.5556 11.225 14.9038 11.225 15.3333C11.225 15.7629 10.8767 16.1111 10.4472 16.1111H5.16176C4.7322 16.1111 4.38398 15.7629 4.38398 15.3333Z" fill="currentColor"/>
        <path d="M22.3049 6.30858C22.6906 6.22248 23.1536 6.2688 23.3869 6.58783C23.5897 6.86519 23.5614 7.26044 23.266 7.43592C23.0925 7.53894 22.9075 7.62022 22.7108 7.67974C22.3221 7.79739 21.8795 7.86928 21.3828 7.89543C20.8861 7.92157 20.3269 7.94771 19.7049 7.97386C19.001 7.99564 18.4201 8.15904 17.9623 8.46405C17.5045 8.76471 17.1525 9.20479 16.9064 9.78431C16.6682 10.345 16.5108 11.0363 16.4344 11.8581C16.4302 11.9028 16.4655 11.9412 16.5103 11.9412C16.5388 11.9412 16.5648 11.9254 16.5783 11.9004C16.9049 11.2979 17.3554 10.8496 17.9299 10.5556C18.5173 10.2505 19.1629 10.098 19.8669 10.098C20.6529 10.098 21.3569 10.281 21.9788 10.6471C22.605 11.0131 23.0974 11.5556 23.4558 12.2745C23.8186 12.9891 24 13.8671 24 14.9085C24 15.9542 23.8143 16.8584 23.4429 17.6209C23.0715 18.3834 22.5489 18.9717 21.8751 19.3856C21.2014 19.7952 20.4111 20 19.5041 20C18.5972 20 17.8047 19.7887 17.1266 19.366C16.4486 18.939 15.9217 18.3072 15.5459 17.4706C15.1702 16.6296 14.9823 15.5926 14.9823 14.3595V13.3268C14.9823 11.061 15.3732 9.35076 16.1549 8.19608C16.9366 7.03704 18.107 6.44009 19.6661 6.40523C20.1973 6.3878 20.6702 6.38344 21.0848 6.39216C21.4994 6.40087 21.8622 6.38126 22.1731 6.33333C22.2181 6.3264 22.262 6.31815 22.3049 6.30858ZM19.5106 18.4967C20.0807 18.4967 20.573 18.3508 20.9876 18.0588C21.4022 17.7625 21.7197 17.3486 21.9399 16.817C22.1645 16.281 22.2768 15.6514 22.2768 14.9281C22.2768 14.2179 22.1645 13.6144 21.9399 13.1176C21.7154 12.6209 21.3936 12.244 20.9747 11.9869C20.5601 11.7255 20.0634 11.5948 19.4847 11.5948C19.0571 11.5948 18.6728 11.6688 18.3316 11.817C17.9947 11.9608 17.7053 12.1765 17.4635 12.4641C17.226 12.7516 17.0424 13.1024 16.9128 13.5163C16.7833 13.9259 16.7142 14.3965 16.7055 14.9281C16.7055 16.0087 16.956 16.8736 17.457 17.5229C17.958 18.1721 18.6425 18.4967 19.5106 18.4967Z" fill="currentColor"/>
    </svg>
    <svg id="socials" width="1em" height="1em" viewBox="0 0 27 27" fill="none" xmlns="http://www.w3.org/2000/svg">
        <ellipse cx="13.5" cy="18.5625" rx="6.75" ry="2.8125" stroke="currentColor" stroke-width="1.5" stroke-linejoin="round"/>
        <circle cx="13.5" cy="9" r="3.375" stroke="currentColor" stroke-width="1.5" stroke-linejoin="round"/>
        <path fill-rule="evenodd" clip-rule="evenodd" d="M7.0673 15.0219C5.75546 15.0934 4.55628 15.3377 3.61898 15.7126C3.05772 15.9371 2.55319 16.2232 2.17671 16.5793C1.79864 16.9368 1.5 17.4167 1.5 18C1.5 18.5833 1.79864 19.0632 2.17671 19.4207C2.55319 19.7768 3.05772 20.0628 3.61898 20.2873C4.14365 20.4972 4.75037 20.6662 5.41297 20.7868C4.94267 20.2468 4.63828 19.6527 4.53717 19.0257C4.41081 18.9841 4.2903 18.9403 4.17607 18.8946C3.7194 18.712 3.40017 18.5132 3.20737 18.3309C3.01616 18.15 3 18.038 3 18C3 17.962 3.01616 17.8499 3.20737 17.6691C3.40017 17.4868 3.7194 17.288 4.17607 17.1054C4.43438 17.002 4.72484 16.9086 5.04233 16.8277C5.48497 16.145 6.18136 15.5311 7.0673 15.0219Z" fill="currentColor"/>
        <path fill-rule="evenodd" clip-rule="evenodd" d="M22.4628 19.0257C22.3616 19.6527 22.0573 20.2468 21.587 20.7868C22.2496 20.6662 22.8563 20.4972 23.3809 20.2873C23.9422 20.0628 24.4467 19.7768 24.8232 19.4207C25.2013 19.0632 25.4999 18.5833 25.4999 18C25.4999 17.4167 25.2013 16.9368 24.8232 16.5793C24.4467 16.2232 23.9422 15.9371 23.3809 15.7126C22.4436 15.3377 21.2445 15.0934 19.9326 15.0219C20.8186 15.5311 21.5149 16.145 21.9576 16.8277C22.2751 16.9086 22.5655 17.002 22.8239 17.1054C23.2805 17.288 23.5998 17.4868 23.7925 17.6691C23.9838 17.8499 23.9999 17.962 23.9999 18C23.9999 18.038 23.9838 18.15 23.7925 18.3309C23.5998 18.5132 23.2805 18.712 22.8239 18.8946C22.7096 18.9403 22.5891 18.9841 22.4628 19.0257Z" fill="currentColor"/>
        <path fill-rule="evenodd" clip-rule="evenodd" d="M18.5376 11.5056C18.3103 11.9617 18.0229 12.3825 17.6858 12.7578C18.1131 12.9919 18.6035 13.125 19.1251 13.125C20.782 13.125 22.1251 11.7819 22.1251 10.125C22.1251 8.46815 20.782 7.125 19.1251 7.125C19.0189 7.125 18.9141 7.13051 18.8108 7.14127C18.975 7.61058 19.0788 8.10828 19.1128 8.62505C19.1169 8.62502 19.121 8.625 19.1251 8.625C19.9535 8.625 20.6251 9.29657 20.6251 10.125C20.6251 10.9534 19.9535 11.625 19.1251 11.625C18.9166 11.625 18.718 11.5825 18.5376 11.5056Z" fill="currentColor"/>
        <path fill-rule="evenodd" clip-rule="evenodd" d="M8.18935 7.14127C8.08604 7.13051 7.98116 7.125 7.875 7.125C6.21815 7.125 4.875 8.46815 4.875 10.125C4.875 11.7819 6.21815 13.125 7.875 13.125C8.39656 13.125 8.88704 12.9919 9.31431 12.7578C8.97717 12.3825 8.68977 11.9617 8.46248 11.5056C8.28206 11.5825 8.0835 11.625 7.875 11.625C7.04657 11.625 6.375 10.9534 6.375 10.125C6.375 9.29657 7.04657 8.625 7.875 8.625C7.8791 8.625 7.8832 8.62502 7.8873 8.62505C7.92131 8.10828 8.0251 7.61058 8.18935 7.14127Z" fill="currentColor"/>
    </svg>
    <svg id="eng" width="1em" height="1em" viewBox="0 0 24 14" fill="none" xmlns="http://www.w3.org/2000/svg">
        <path d="M2.14317 13.199C2.01412 13.5545 1.67634 13.7912 1.29811 13.7912C0.670182 13.7912 0.235692 13.1639 0.456523 12.5761L4.83467 0.922201C5.04309 0.367428 5.57363 0 6.16626 0C6.75866 0 7.28904 0.367147 7.49763 0.921614L11.8802 12.5717C12.1021 13.1615 11.6662 13.7912 11.036 13.7912C10.6565 13.7912 10.3177 13.5537 10.1882 13.197L6.24045 2.32152C6.22908 2.29021 6.19934 2.26936 6.16603 2.26936C6.13272 2.26936 6.10297 2.29021 6.09161 2.32152L2.14317 13.199ZM2.51774 9.17845C2.51774 8.75076 2.86445 8.40404 3.29215 8.40404H9.03991C9.4676 8.40404 9.81432 8.75076 9.81432 9.17845C9.81432 9.60615 9.4676 9.95286 9.03991 9.95286H3.29215C2.86445 9.95286 2.51774 9.60615 2.51774 9.17845Z" fill="currentColor"/>
        <path d="M15.3613 13.7912C14.8921 13.7912 14.5117 13.4108 14.5117 12.9416V0.877393C14.5117 0.392822 14.9045 0 15.3891 0C15.8736 0 16.2665 0.392822 16.2665 0.877393V5.01253C16.2665 5.05954 16.3046 5.09764 16.3516 5.09764C16.3806 5.09764 16.4076 5.0828 16.4235 5.05844C16.5417 4.87704 16.7021 4.65666 16.9046 4.39731C17.1265 4.11448 17.4386 3.86308 17.8409 3.6431C18.2432 3.42312 18.7888 3.31313 19.4778 3.31313C20.361 3.31313 21.1424 3.52862 21.8221 3.9596C22.5065 4.39057 23.0405 5.00561 23.4243 5.80471C23.8081 6.60382 24 7.55107 24 8.64647C24 9.74635 23.8081 10.6981 23.4243 11.5017C23.0452 12.3008 22.5157 12.9181 21.836 13.3535C21.1609 13.7845 20.3818 14 19.4986 14C18.8235 14 18.2802 13.8923 17.8687 13.6768C17.4617 13.4568 17.145 13.2054 16.9184 12.9226C16.7133 12.6624 16.5517 12.4391 16.4338 12.2525C16.4114 12.2172 16.3727 12.1953 16.3309 12.1953C16.2646 12.1953 16.211 12.249 16.211 12.3152V12.9933C16.211 13.434 15.8537 13.7912 15.413 13.7912H15.3613ZM16.2318 8.61953C16.2318 9.38721 16.3474 10.0629 16.5786 10.6465C16.8098 11.2256 17.145 11.679 17.5843 12.0067C18.0282 12.3345 18.5715 12.4983 19.2142 12.4983C19.8801 12.4983 20.4373 12.3277 20.8858 11.9865C21.3343 11.6409 21.6718 11.174 21.8984 10.5859C22.1296 9.99776 22.2452 9.34231 22.2452 8.61953C22.2452 7.90572 22.1319 7.2615 21.9054 6.68687C21.6834 6.11223 21.3482 5.65657 20.8996 5.31987C20.4511 4.98316 19.8893 4.81481 19.2142 4.81481C18.5622 4.81481 18.0143 4.97419 17.5704 5.29293C17.1311 5.61167 16.7982 6.05612 16.5716 6.62626C16.3451 7.19641 16.2318 7.86083 16.2318 8.61953Z" fill="currentColor"/>
    </svg>

</svg>
