<svg width="0" height="0">
    <svg id="logo" width="152" height="30" viewBox="0 0 152 30" fill="none" xmlns="http://www.w3.org/2000/svg">
        <path d="M0 22.7038V7.35071H11.3173V9.83109H2.83406V13.8685H10.2026V16.2946H2.83406V20.2234H11.3173V22.7038H0Z" fill="currentColor"/>
        <path d="M14.0192 22.7038V7.35071H24.8642V9.83109H16.8532V22.7219H14.0192V22.7038Z" fill="currentColor"/>
        <path d="M33.1395 22.8668C31.9303 22.8668 30.8534 22.6857 29.8898 22.3055C28.9262 21.9253 28.1327 21.3822 27.5281 20.658C26.9046 19.9338 26.489 19.0647 26.2811 18.0328H29.1341C29.2852 18.5035 29.5497 18.9199 29.9276 19.2639C30.3055 19.6079 30.7778 19.8795 31.3257 20.0605C31.8737 20.2416 32.4972 20.3321 33.1773 20.3321C34.1598 20.3321 34.9722 20.151 35.6335 19.8071C36.2759 19.445 36.786 18.9561 37.145 18.3224C37.504 17.6888 37.6929 16.9827 37.7307 16.2042H31.0612V13.7962H37.7118C37.674 13.0358 37.4851 12.3478 37.145 11.7322C36.8049 11.1166 36.3326 10.6097 35.6902 10.2114C35.0478 9.81309 34.2354 9.63203 33.234 9.63203C32.5161 9.63203 31.8926 9.72256 31.3446 9.92172C30.7967 10.1028 30.3622 10.3743 30.0032 10.7183C29.6631 11.0623 29.3986 11.4787 29.2474 11.9495H26.489C26.6968 10.827 27.1502 9.92172 27.8115 9.21562C28.4917 8.50953 29.3041 7.98448 30.2866 7.64048C31.2691 7.29649 32.2893 7.13354 33.3852 7.13354C34.6321 7.13354 35.7091 7.3327 36.616 7.73101C37.5229 8.12932 38.2975 8.69058 38.9021 9.39667C39.5067 10.1209 39.9602 10.9537 40.2436 11.9133C40.5459 12.8728 40.6781 13.9229 40.6781 15.0273C40.6781 16.5844 40.3947 17.9422 39.8279 19.1191C39.2611 20.2959 38.4109 21.2011 37.2962 21.871C36.1436 22.5409 34.7644 22.8668 33.1395 22.8668Z" fill="currentColor"/>
        <path d="M49.6338 22.7038V7.35071H62.746V22.7038H59.912V9.79488H52.4678V22.7038H49.6338Z" fill="currentColor"/>
        <path d="M66.317 22.7038V7.35071H72.3441C73.5533 7.35071 74.5925 7.53176 75.4805 7.87575C76.3685 8.23785 77.0486 8.79911 77.5399 9.55952C78.0311 10.3199 78.2767 11.3338 78.2767 12.5831C78.2767 13.778 78.0122 14.7557 77.4643 15.5523C76.9164 16.3489 76.1795 16.9464 75.2348 17.3447C74.2902 17.743 73.2321 17.9421 72.0229 17.9421H69.1511V22.7038H66.317ZM69.1511 15.5161H71.9851C73.0243 15.5161 73.8745 15.2807 74.498 14.7919C75.1404 14.3211 75.4427 13.5607 75.4427 12.5287C75.4427 11.6235 75.1782 10.9536 74.6491 10.501C74.1201 10.0484 73.3077 9.81298 72.193 9.81298H69.1322V15.5161H69.1511Z" fill="currentColor"/>
        <path d="M88.0259 22.8668C86.3821 22.8668 84.984 22.5409 83.8126 21.871C82.6601 21.2011 81.7721 20.2778 81.1675 19.0829C80.5629 17.8879 80.2417 16.5482 80.2417 15.0273C80.2417 13.4703 80.544 12.1124 81.1675 10.9356C81.791 9.75877 82.679 8.83542 83.8504 8.14743C85.0218 7.47754 86.4199 7.13354 88.0637 7.13354C89.7074 7.13354 91.1056 7.45944 92.277 8.12932C93.4295 8.79921 94.3175 9.72256 94.941 10.8994C95.5645 12.0762 95.8668 13.4341 95.8668 14.973C95.8668 16.4938 95.5645 17.8517 94.941 19.0285C94.3364 20.2235 93.4295 21.1468 92.2581 21.8348C91.1056 22.5409 89.6885 22.8668 88.0259 22.8668ZM88.0637 20.3502C89.2162 20.3502 90.142 20.0967 90.8789 19.5898C91.5968 19.0829 92.1447 18.4311 92.4848 17.6164C92.8249 16.8016 92.995 15.9507 92.995 15.0273C92.995 14.3393 92.9005 13.6695 92.7116 13.0358C92.5226 12.4021 92.2203 11.8227 91.8235 11.3158C91.4268 10.8089 90.9166 10.4106 90.2931 10.1028C89.6697 9.81309 88.9328 9.65014 88.0637 9.65014C86.9301 9.65014 86.0043 9.90361 85.2674 10.4106C84.5306 10.9175 84.0015 11.5693 83.6426 12.384C83.3025 13.1987 83.1135 14.0678 83.1135 15.0092C83.1135 15.9326 83.2836 16.8016 83.6426 17.6164C83.9827 18.4311 84.5306 19.0829 85.2674 19.5898C86.0043 20.0967 86.9301 20.3502 88.0637 20.3502Z" fill="currentColor"/>
        <path d="M142.118 30H110.226C104.766 30 100.326 25.7453 100.326 20.513V9.48702C100.326 4.25468 104.766 0 110.226 0H142.1C147.56 0 152 4.25468 152 9.48702V20.513C152.019 25.7634 147.579 30 142.118 30Z" fill="#4E73D3"/>
        <path d="M110.755 22.7037V11.0803H107.581V9.10681C108.204 9.0706 108.752 9.01628 109.243 8.90765C109.735 8.79902 110.169 8.63608 110.547 8.38261C110.925 8.12914 111.284 7.78514 111.586 7.33252H113.608V22.6856H110.755V22.7037Z" fill="white"/>
        <path d="M123.338 22.8668C122.167 22.8668 121.184 22.6676 120.372 22.2693C119.559 21.871 118.898 21.3098 118.407 20.5856C117.916 19.8614 117.538 19.0285 117.311 18.0871C117.084 17.1456 116.952 16.1317 116.952 15.0454C116.952 13.941 117.066 12.909 117.311 11.9676C117.538 11.008 117.916 10.1752 118.426 9.45098C118.936 8.72678 119.597 8.16553 120.41 7.74911C121.222 7.3327 122.223 7.13354 123.376 7.13354C124.566 7.13354 125.587 7.35081 126.399 7.78533C127.23 8.21985 127.873 8.7992 128.364 9.54151C128.855 10.2838 129.214 11.1166 129.422 12.0581C129.649 12.9996 129.743 13.9772 129.743 15.0092C129.743 16.0231 129.63 17.0008 129.422 17.9422C129.195 18.8837 128.836 19.7165 128.345 20.4588C127.854 21.2011 127.193 21.7805 126.361 22.215C125.549 22.6676 124.529 22.8668 123.338 22.8668ZM123.338 20.4045C124.113 20.4045 124.736 20.2235 125.209 19.8795C125.681 19.5355 126.04 19.0829 126.286 18.5397C126.531 17.9966 126.682 17.4172 126.777 16.7835C126.852 16.1679 126.909 15.5705 126.909 15.0273C126.909 14.4842 126.871 13.8867 126.796 13.2711C126.72 12.6556 126.569 12.0762 126.323 11.515C126.078 10.9718 125.719 10.5192 125.265 10.1752C124.793 9.83119 124.17 9.65014 123.376 9.65014C122.582 9.65014 121.959 9.83119 121.487 10.1752C121.014 10.5192 120.655 10.9718 120.41 11.515C120.164 12.0581 120.013 12.6375 119.918 13.2711C119.843 13.8867 119.786 14.4842 119.786 15.0273C119.786 15.5705 119.824 16.1679 119.9 16.7835C119.975 17.3991 120.126 17.9784 120.372 18.5397C120.599 19.0829 120.958 19.5355 121.43 19.8795C121.902 20.2235 122.545 20.4045 123.338 20.4045Z" fill="white"/>
        <path d="M138.34 22.8668C137.168 22.8668 136.186 22.6676 135.374 22.2693C134.561 21.871 133.9 21.3098 133.409 20.5856C132.917 19.8614 132.539 19.0285 132.313 18.0871C132.086 17.1456 131.954 16.1317 131.954 15.0454C131.954 13.941 132.067 12.909 132.313 11.9676C132.539 11.008 132.917 10.1752 133.427 9.45098C133.938 8.72678 134.599 8.16553 135.411 7.74911C136.224 7.3327 137.225 7.13354 138.378 7.13354C139.568 7.13354 140.588 7.35081 141.401 7.78533C142.232 8.21985 142.874 8.7992 143.366 9.54151C143.857 10.2838 144.216 11.1166 144.424 12.0581C144.65 12.9996 144.745 13.9772 144.745 15.0092C144.745 16.0231 144.631 17.0008 144.424 17.9422C144.197 18.8837 143.838 19.7165 143.347 20.4588C142.855 21.2011 142.194 21.7805 141.363 22.215C140.55 22.6676 139.549 22.8668 138.34 22.8668ZM138.34 20.4045C139.114 20.4045 139.738 20.2235 140.21 19.8795C140.683 19.5355 141.042 19.0829 141.287 18.5397C141.533 17.9966 141.684 17.4172 141.778 16.7835C141.854 16.1679 141.911 15.5705 141.911 15.0273C141.911 14.4842 141.873 13.8867 141.797 13.2711C141.722 12.6556 141.571 12.0762 141.325 11.515C141.079 10.9718 140.72 10.5192 140.267 10.1752C139.795 9.83119 139.171 9.65014 138.378 9.65014C137.584 9.65014 136.961 9.83119 136.488 10.1752C136.016 10.5192 135.657 10.9718 135.411 11.515C135.166 12.0581 135.015 12.6375 134.92 13.2711C134.844 13.8867 134.788 14.4842 134.788 15.0273C134.788 15.5705 134.826 16.1679 134.901 16.7835C134.977 17.3991 135.128 17.9784 135.374 18.5397C135.6 19.0829 135.959 19.5355 136.432 19.8795C136.904 20.2235 137.546 20.4045 138.34 20.4045Z" fill="white"/>
    </svg>
</svg>
