<svg height="0" width="0">
    <svg id="vk" width="1em" height="1em" fill="none" xmlns="http://www.w3.org/2000/svg">
        <path d="M19.712 16.8492H17.6202C16.8291 16.8492 16.5908 16.2085 15.1727 14.7895C13.9333 13.5951 13.4099 13.4466 13.0964 13.4466C12.6628 13.4466 12.5446 13.5657 12.5446 14.1625V16.0435C12.5446 16.5522 12.3796 16.8502 11.0504 16.8502C9.76093 16.7635 8.51048 16.3718 7.40205 15.7072C6.29363 15.0426 5.35895 14.1242 4.675 13.0277C3.0516 11.0061 1.92171 8.63393 1.375 6.09949C1.375 5.78599 1.49417 5.50183 2.09183 5.50183H4.18183C4.719 5.50183 4.91242 5.74108 5.12325 6.29383C6.138 9.28033 7.86958 11.8782 8.57267 11.8782C8.84217 11.8782 8.9595 11.759 8.9595 11.0871V8.01074C8.87058 6.60733 8.12533 6.48908 8.12533 5.98124C8.13476 5.84726 8.19605 5.72224 8.29618 5.63272C8.39631 5.5432 8.52739 5.49625 8.66158 5.50183H11.9469C12.3961 5.50183 12.5446 5.72549 12.5446 6.26266V10.4152C12.5446 10.8634 12.7371 11.0119 12.8728 11.0119C13.1423 11.0119 13.3494 10.8634 13.8435 10.3702C14.9021 9.07835 15.7674 7.63941 16.412 6.09858C16.4777 5.91338 16.6023 5.75482 16.7667 5.6472C16.9311 5.53958 17.1262 5.48883 17.3222 5.50274H19.4132C20.0402 5.50274 20.1731 5.81624 20.0402 6.26358C19.2795 7.96701 18.3385 9.58407 17.2333 11.0871C17.0078 11.4308 16.918 11.6096 17.2333 12.0129C17.4405 12.3264 18.1738 12.9387 18.6661 13.5208C19.3829 14.2358 19.9778 15.0627 20.4279 15.9683C20.6076 16.5513 20.3088 16.8492 19.712 16.8492Z" fill="currentColor"/>
    </svg>
    <svg id="tg" width="1em" height="1em" fill="none" xmlns="http://www.w3.org/2000/svg">
        <g clip-path="url(#clip0_1131_2713)">
            <path fill-rule="evenodd" clip-rule="evenodd" d="M18.1289 4.0608C18.3554 3.96546 18.6033 3.93258 18.8469 3.96558C19.0904 3.99857 19.3207 4.09625 19.5137 4.24843C19.7067 4.40061 19.8553 4.60174 19.9442 4.83088C20.0331 5.06002 20.0589 5.30879 20.019 5.5513L17.94 18.1619C17.7384 19.3783 16.4037 20.0759 15.2881 19.47C14.355 18.9631 12.969 18.1821 11.7223 17.3671C11.099 16.9592 9.18955 15.653 9.42422 14.7235C9.62588 13.9287 12.8342 10.9422 14.6675 9.16664C15.3871 8.46905 15.059 8.06663 14.2092 8.7083C12.099 10.3015 8.71105 12.7242 7.59088 13.4062C6.60272 14.0076 6.08755 14.1102 5.47155 14.0076C4.34772 13.8206 3.30547 13.5309 2.4548 13.178C1.3053 12.7013 1.36122 11.121 2.45388 10.6608L18.1289 4.0608Z" fill="currentColor"/>
        </g>
        <defs>
            <clipPath id="clip0_1131_2713">
                <rect width="22" height="22" fill="currentColor"/>
            </clipPath>
        </defs>
    </svg>
</svg>
