<svg width="1320" height="699" viewBox="0 0 1320 699" fill="none" xmlns="http://www.w3.org/2000/svg">
<path d="M1319.5 675C1319.5 687.979 1308.98 698.5 1296 698.5L23.9999 698.5C11.0211 698.5 0.499879 687.979 0.49988 675L0.499937 24C0.499938 11.0213 11.0212 0.500008 23.9999 0.500009L516.479 0.500052C524.161 0.500052 531.358 4.25475 535.753 10.5554L541.427 18.6887C546.009 25.2573 553.512 29.1719 561.521 29.1719L759.329 29.1719C767.139 29.1719 774.48 25.4489 779.095 19.1487L785.712 10.1142C790.138 4.07106 797.18 0.500076 804.671 0.500077L1296 0.50012C1308.98 0.500121 1319.5 11.0214 1319.5 24.0001L1319.5 675Z" fill="white" stroke="#DAE8EF"/>
</svg>
